/* XPM */
static char *_669477901873[] = {
/* columns rows colors chars-per-pixel */
"64 64 110 2 ",
"   c black",
".  c #8E0000",
"X  c #930000",
"o  c #940000",
"O  c #950000",
"+  c #960000",
"@  c #D30000",
"#  c #D40000",
"$  c #D50000",
"%  c #DA0000",
"&  c #DB0000",
"*  c #DC0000",
"=  c #DD0000",
"-  c #DE0000",
";  c #DF0000",
":  c #E00000",
">  c #E10000",
",  c #E20000",
"<  c #E30000",
"1  c #E40000",
"2  c #E50000",
"3  c #E70000",
"4  c #E80000",
"5  c #E90000",
"6  c #EA0000",
"7  c #EB0000",
"8  c #EC0000",
"9  c #ED0000",
"0  c #EE0000",
"q  c #EF0000",
"w  c #F00000",
"e  c #F10000",
"r  c #F20000",
"t  c #F30000",
"y  c #F40000",
"u  c #F50000",
"i  c #CD5B04",
"p  c #D45F04",
"a  c #D55F04",
"s  c #D65F04",
"d  c #D66004",
"f  c #D76004",
"g  c #D86004",
"h  c #D96104",
"j  c #BCC009",
"k  c #C4C809",
"l  c #C5C909",
"z  c #C6CA09",
"x  c #C7CB09",
"c  c #C7CC09",
"v  c #C8CC09",
"b  c #C8CC0A",
"n  c #CCD00A",
"m  c #CDD10A",
"M  c #CDD20A",
"N  c #CED20A",
"B  c #CED30A",
"V  c #CFD30A",
"C  c #CFD40A",
"Z  c #D0D40A",
"A  c #D0D50A",
"S  c #D1D50A",
"D  c #D1D60A",
"F  c #D2D60A",
"G  c #D2D70A",
"H  c #D3D70A",
"J  c #D3D80A",
"K  c #D4D80A",
"L  c #D4D90A",
"P  c #D5D90A",
"I  c #D5DA0A",
"U  c #D6DA0A",
"Y  c #D6DB0A",
"T  c #D7DB0A",
"R  c #D7DC0A",
"E  c #D8DC0A",
"W  c #D8DD0A",
"Q  c #D9DD0A",
"!  c #D9DE0A",
"~  c #DADE0A",
"^  c #DADF0A",
"/  c #DBDF0A",
"(  c #DBE00A",
")  c #DCE10A",
"_  c #DDE10A",
"`  c #DCE10B",
"'  c #DDE10B",
"]  c #DDE20B",
"[  c #DEE20B",
"{  c #DEE30B",
"}  c #DFE30B",
"|  c #DCE40B",
" . c #DFE40B",
".. c #DFE70B",
"X. c #E0E40B",
"o. c #E0E50B",
"O. c #E1E50B",
"+. c #E1E60B",
"@. c #E0E70B",
"#. c #E2E60B",
"$. c #E2E70B",
"%. c #E3E70B",
"&. c #E0E80B",
"*. c #E1E90B",
"=. c #E3E80B",
"-. c #E2EA0B",
";. c #E3EB0B",
":. c #E4E80B",
">. c #E4E90B",
",. c None",
/* pixels */
",.,.,.,.,.,.,.,.,.,.,.,.,.,.,.,.,.,.,.,.,.,.,.,.,.,.,.,.,.,.,.,.,.,.,.,.,.,.,.,.,.,.,.,.,.,.,.,.,.,.,.,.,.,.,.,.,.,.,.,.,.,.,.,.",
",.,.,.,.,.,.,.,.,.,.,.,.,.,.,.,.,.,.,.,.,.,.,.,.,.,.,.,.,.,.,.,.,.,.,.,.,.,.,.,.,.,.,.,.,.,.,.,.,.,.,.,.,.,.,.,.,.,.,.,.,.,.,.,.",
",.,.,.,.,.,.,.,.,.,.,.,.,.,.,.,.,.,.,.,.,.,.,.,.,.,.,.,.,.,.,.,.,.,.,.,.,.,.,.,.,.,.,.,.,.,.,.,.,.,.,.,.,.,.,.,.,.,.,.,.,.,.,.,.",
",.,.,.,.,.,.,.,.,.,.,.,.,.,.,.,.,.,.,.,.,.,.,.,.,.,.,.,.,.,.,.,.,.,.,.,.,.,.,.,.,.,.,.,.,.,.,.,.,.,.,.,.,.,.,.,.,.,.,.,.,.,.,.,.",
",.,.,.,.,.,.,.,.,.,.,.,.,.,.,.,.,.,.,.,.,.,.,.,.,.,.,.,.,.,.,.,.,.,.,.,.,.,.,.,.,.,.,.,.,.,.,.,.,.,.,.,.,.,.,.,.,.,.,.,.,.,.,.,.",
",.,.,.,.,.,.,.,.,.,.,.,.,.,.,.,.,.,.,.,.,.,.,.,.,.,.,.,.,.,.,.,.,.,.,.,.,.,.,.,.,.,.,.,.,.,.,.,.,.,.,.,.,.,.,.,.,.,.,.,.,.,.,.,.",
",.,.,.,.,.,.,.,.,.,.,.,.,.,.,.,.,.,.,.,.,.,.,.,.,.,.,.,.,.,.,.,.,.,.,.,.,.,.,.,.,.,.,.,.,.,.,.,.,.,.,.,.,.,.,.,.,.,.,.,.,.,.,.,.",
",.,.,.,.,.,.,.,.,.,.,.,.,.,.,.,.,.,.,.,.,.,.,.,.,.,.,.,.,.,.,.,.,.,.,.,.,.,.,.,.,.,.,.,.,.,.,.,.,.,.,.,.,.,.,.,.,.,.,.,.,.,.,.,.",
",.,.,.,.,.,.,.,.,.,.,.,.,.,.,.,.,.,.,.,.,.,.,.,.,.,.,.,.,.,.,.,.,.,.,.,.,.,.,.,.,.,.,.,.,.,.,.,.,.,.,.,.,.,.,.,.,.,.,.,.,.,.,.,.",
",.,.,.,.,.,.,.,.,.,.,.,.,.,.,.,.,.,.,.,.,.,.,.,.,.,.,.,.,.,.,.,.,.,.,.,.,.,.,.,.,.,.,.,.,.,.,.,.,.,.,.,.,.,.,.,.,.,.,.,.,.,.,.,.",
",.,.,.,.,.,.,.,.,.,.,.,.,.,.,.,.,.,.,.,.,.,.,.,.,.,.,.,.,.,.,.,.,.,.,.,.,.,.,.,.,.,.,.,.,.,.,.,.,.,.,.,.,.,.,.,.,.,.,.,.,.,.,.,.",
",.,.,.,.,.,.,.,.,.,.,.,.,.                                                                            ,.,.,.,.,.,.,.,.,.,.,.,.,.",
",.,.,.,.,.,.,.,.,.,.,.,.,.                                                                            ,.,.,.,.,.,.,.,.,.,.,.,.,.",
",.,.,.,.,.,.,.,.,.,.,.,.,.                                                                            ,.,.,.,.,.,.,.,.,.,.,.,.,.",
",.,.,.,.,.,.,.,.,.,.,.,.,.                                                                            ,.,.,.,.,.,.,.,.,.,.,.,.,.",
",.,.,.,.,.,.,.,.,.,.,.,.,.                                                                            ,.,.,.,.,.,.,.,.,.,.,.,.,.",
",.,.,.,.,.,.,.,.,.,.,.,.,.                                                                            ,.,.,.,.,.,.,.,.,.,.,.,.,.",
",.,.,.,.,.,.,.,.,.,.,.,.,.                                                                            ,.,.,.,.,.,.,.,.,.,.,.,.,.",
",.,.,.,.,.,.,.,.,.,.,.,.,.                                                                            ,.,.,.,.,.,.,.,.,.,.,.,.,.",
",.,.,.,.,.,.,.,.,.,.,.,.,.                                                                            ,.,.,.,.,.,.,.,.,.,.,.,.,.",
",.,.,.,.,.,.,.,.,.,.,.,.,.                                                                            ,.,.,.,.,.,.,.,.,.,.,.,.,.",
",.,.,.,.,.,.,.,.,.,.,.,.,.                                                                            ,.,.,.,.,.,.,.,.,.,.,.,.,.",
",.,.,.,.,.,.,.,.,.,.,.,.,.                                                                            ,.,.,.,.,.,.,.,.,.,.,.,.,.",
",.,.,.,.,.,.,.,.,.,.,.,.,.                                                                            ,.,.,.,.,.,.,.,.,.,.,.,.,.",
",.,.,.,.,.,.,.,.,.,.,.,.,.X X O + X o + o o + o X + O X O O X O + X o + o o + o X + O X O O X O + o . ,.,.,.,.,.,.,.,.,.,.,.,.,.",
",.,.,.,.,.,.,.,.,.,.,.,.,.t e t u e r u r r u t e u y e u u e t u e r u r r u t e u y e u u e t u e 9 ,.,.,.,.,.,.,.,.,.,.,.,.,.",
",.,.,.,.,.,.,.,.,.,.,.,.,.& * - ; * = ; * * ; = * ; - * ; ; * - ; * = ; * * ; = * ; - * ; ; * - ; * @ ,.,.,.,.,.,.,.,.,.,.,.,.,.",
",.,.,.,.,.,.,.,.,.,.,.,.,.r q r t w e t w w t e w t r q t t q r t w e t w w t e w t r q t t q r t w 8 ,.,.,.,.,.,.,.,.,.,.,.,.,.",
",.,.,.,.,.,.,.,.,.,.,.,.,.= = : > = ; > - - > ; - > : = : : = : > = ; > - - > ; - > : = : : = : > - $ ,.,.,.,.,.,.,.,.,.,.,.,.,.",
",.,.,.,.,.,.,.,.,.,.,.,.,.0 8 q w 8 9 w 9 9 w 0 9 w q 8 w w 8 q w 8 9 w 9 9 w 0 9 w q 8 w w 8 q w 9 4 ,.,.,.,.,.,.,.,.,.,.,.,.,.",
",.,.,.,.,.,.,.,.,.,.,.,.,., , 1 2 , < 2 , , 2 < , 2 1 , 2 2 , 1 2 , < 2 , , 2 < , 2 1 , 2 2 , 1 2 , & ,.,.,.,.,.,.,.,.,.,.,.,.,.",
",.,.,.,.,.,.,.,.,.,.,.,.,.4 3 5 7 3 4 7 3 3 7 4 3 7 5 3 6 6 3 5 7 3 4 7 3 3 7 4 3 7 5 3 6 6 3 5 7 3 > ,.,.,.,.,.,.,.,.,.,.,.,.,.",
",.,.,.,.,.,.,.,.,.,.,.,.,.5 4 6 7 4 5 7 4 4 7 5 4 7 6 4 7 7 3 6 7 4 5 7 4 4 7 5 4 7 6 4 7 7 3 6 7 4 , ,.,.,.,.,.,.,.,.,.,.,.,.,.",
",.,.,.,.,.,.,.,.,.,.,.,.,.> > < 1 > , 2 > > 2 , > 2 < > 1 1 > < 1 > , 2 > > 2 , > 2 < > 1 1 > < 1 > % ,.,.,.,.,.,.,.,.,.,.,.,.,.",
",.,.,.,.,.,.,.,.,.,.,.,.,.0 9 q w 9 0 e 9 9 e 0 9 e q 9 w w 9 q w 9 0 e 9 9 e 0 9 e q 9 w w 9 q w 9 4 ,.,.,.,.,.,.,.,.,.,.,.,.,.",
",.,.,.,.,.,.,.,.,.,.,.,.,.* = ; : = - : = = : - = : ; = : : = ; : = - : = = : - = : ; = : : = ; : = # ,.,.,.,.,.,.,.,.,.,.,.,.,.",
",.,.,.,.,.,.,.,.,.,.,.,.,.r w r y w e y w w y e w y r w t t w r y w e y w w y e w y r w t t w r y w 8 ,.,.,.,.,.,.,.,.,.,.,.,.,.",
",.,.,.,.,.,.,.,.,.,.,.,.,.p a f g a d h s a h d a g f a g g a f g a d h s a h d a g f a g g a f g s i ,.,.,.,.,.,.,.,.,.,.,.,.,.",
",.,.,.,.,.,.,.,.,.,.,.,.,.*...-.;.&.*.;.&.&.;.*.@.;.-...-.-...-.;.&.*.;.&.&.;.*.@.;.-...-.-...-.;.&.| ,.,.,.,.,.,.,.,.,.,.,.,.,.",
",.,.,.,.,.,.,.,.,.,.,.,.,.V C D H Z S H Z Z H S C H D C G G C D H Z S H Z Z H S C H D C G G C D H Z v ,.,.,.,.,.,.,.,.,.,.,.,.,.",
",.,.,.,.,.,.,.,.,.,.,.,.,.[ ` } o._ { o.] ] o.{ ' o.} `  . .` } o._ { o.] ] o.{ ' o.} `  . .` } o.] W ,.,.,.,.,.,.,.,.,.,.,.,.,.",
",.,.,.,.,.,.,.,.,.,.,.,.,.K K U R L I R P L R I K R Y K T T K U R L I R P L R I K R Y K T T K U R L N ,.,.,.,.,.,.,.,.,.,.,.,.,.",
",.,.,.,.,.,.,.,.,.,.,.,.,.W R ~ ( E Q ( W W ( ! E ( ~ R ^ ^ R ~ ( E Q ( W W ( ! E ( ~ R ^ ^ R ~ ( W F ,.,.,.,.,.,.,.,.,.,.,.,.,.",
",.,.,.,.,.,.,.,.,.,.,.,.,.^ ! ( ' ! / ] ^ ~ ] / ! ' ( ! ` ` ! ( ' ! / ] ^ ~ ] / ! ' ( ! ` ` ! ( ' ~ L ,.,.,.,.,.,.,.,.,.,.,.,.,.",
",.,.,.,.,.,.,.,.,.,.,.,.,.G G L U G K Y J H U K G U L G I I G L U G K Y J H U K G U L G I I G L U H n ,.,.,.,.,.,.,.,.,.,.,.,.,.",
",.,.,.,.,.,.,.,.,.,.,.,.,. .[ o.+.{  .#.} { +. .{ +.o.[ O.+.[ o.+.{  .#.} { +. .{ +.o.[ O.+.[ o.+.{ ^ ,.,.,.,.,.,.,.,.,.,.,.,.,.",
",.,.,.,.,.,.,.,.,.,.,.,.,.N B A F V Z G C V F Z V F S B D D B A F V Z G C V F Z V F S B D D B A F C x ,.,.,.,.,.,.,.,.,.,.,.,.,.",
",.,.,.,.,.,.,.,.,.,.,.,.,.$.o.$.:.o.+.>.+.O.>.#.o.:.$.o.=.=.o.$.:.o.+.>.+.O.>.#.o.:.$.o.=.=.o.$.:.O._ ,.,.,.,.,.,.,.,.,.,.,.,.,.",
",.,.,.,.,.,.,.,.,.,.,.,.,.m M C S N V S N N S V M S C M A A M C S N V S N N S V M S C M A A M C S N z ,.,.,.,.,.,.,.,.,.,.,.,.,.",
",.,.,.,.,.,.,.,.,.,.,.,.,.+.X.$.=.o.+.=.o.o.=.+.X.=.$.X.%.=. .$.=.o.+.=.o.o.=.+.X.=.$.X.%.=. .$.=.o.) ,.,.,.,.,.,.,.,.,.,.,.,.,.",
",.,.,.,.,.,.,.,.,.,.,.,.,.k k z b k z b l l b z k b x k c c k z b k z b l l b z k b x k c c k z b l j ,.,.,.,.,.,.,.,.,.,.,.,.,.",
",.,.,.,.,.,.,.,.,.,.,.,.,.,.,.,.,.,.,.,.,.,.,.,.,.,.,.,.,.,.,.,.,.,.,.,.,.,.,.,.,.,.,.,.,.,.,.,.,.,.,.,.,.,.,.,.,.,.,.,.,.,.,.,.",
",.,.,.,.,.,.,.,.,.,.,.,.,.,.,.,.,.,.,.,.,.,.,.,.,.,.,.,.,.,.,.,.,.,.,.,.,.,.,.,.,.,.,.,.,.,.,.,.,.,.,.,.,.,.,.,.,.,.,.,.,.,.,.,.",
",.,.,.,.,.,.,.,.,.,.,.,.,.,.,.,.,.,.,.,.,.,.,.,.,.,.,.,.,.,.,.,.,.,.,.,.,.,.,.,.,.,.,.,.,.,.,.,.,.,.,.,.,.,.,.,.,.,.,.,.,.,.,.,.",
",.,.,.,.,.,.,.,.,.,.,.,.,.,.,.,.,.,.,.,.,.,.,.,.,.,.,.,.,.,.,.,.,.,.,.,.,.,.,.,.,.,.,.,.,.,.,.,.,.,.,.,.,.,.,.,.,.,.,.,.,.,.,.,.",
",.,.,.,.,.,.,.,.,.,.,.,.,.,.,.,.,.,.,.,.,.,.,.,.,.,.,.,.,.,.,.,.,.,.,.,.,.,.,.,.,.,.,.,.,.,.,.,.,.,.,.,.,.,.,.,.,.,.,.,.,.,.,.,.",
",.,.,.,.,.,.,.,.,.,.,.,.,.,.,.,.,.,.,.,.,.,.,.,.,.,.,.,.,.,.,.,.,.,.,.,.,.,.,.,.,.,.,.,.,.,.,.,.,.,.,.,.,.,.,.,.,.,.,.,.,.,.,.,.",
",.,.,.,.,.,.,.,.,.,.,.,.,.,.,.,.,.,.,.,.,.,.,.,.,.,.,.,.,.,.,.,.,.,.,.,.,.,.,.,.,.,.,.,.,.,.,.,.,.,.,.,.,.,.,.,.,.,.,.,.,.,.,.,.",
",.,.,.,.,.,.,.,.,.,.,.,.,.,.,.,.,.,.,.,.,.,.,.,.,.,.,.,.,.,.,.,.,.,.,.,.,.,.,.,.,.,.,.,.,.,.,.,.,.,.,.,.,.,.,.,.,.,.,.,.,.,.,.,.",
",.,.,.,.,.,.,.,.,.,.,.,.,.,.,.,.,.,.,.,.,.,.,.,.,.,.,.,.,.,.,.,.,.,.,.,.,.,.,.,.,.,.,.,.,.,.,.,.,.,.,.,.,.,.,.,.,.,.,.,.,.,.,.,.",
",.,.,.,.,.,.,.,.,.,.,.,.,.,.,.,.,.,.,.,.,.,.,.,.,.,.,.,.,.,.,.,.,.,.,.,.,.,.,.,.,.,.,.,.,.,.,.,.,.,.,.,.,.,.,.,.,.,.,.,.,.,.,.,.",
",.,.,.,.,.,.,.,.,.,.,.,.,.,.,.,.,.,.,.,.,.,.,.,.,.,.,.,.,.,.,.,.,.,.,.,.,.,.,.,.,.,.,.,.,.,.,.,.,.,.,.,.,.,.,.,.,.,.,.,.,.,.,.,.",
",.,.,.,.,.,.,.,.,.,.,.,.,.,.,.,.,.,.,.,.,.,.,.,.,.,.,.,.,.,.,.,.,.,.,.,.,.,.,.,.,.,.,.,.,.,.,.,.,.,.,.,.,.,.,.,.,.,.,.,.,.,.,.,.",
",.,.,.,.,.,.,.,.,.,.,.,.,.,.,.,.,.,.,.,.,.,.,.,.,.,.,.,.,.,.,.,.,.,.,.,.,.,.,.,.,.,.,.,.,.,.,.,.,.,.,.,.,.,.,.,.,.,.,.,.,.,.,.,."
};
