/* XPM */
static char *result[] = {
/* columns rows colors chars-per-pixel */
"64 64 231 2 ",
"   c #211F17",
".  c #29251A",
"X  c #2C2A1D",
"o  c #27251A",
"O  c #322D1D",
"+  c #36311E",
"@  c #3A341F",
"#  c #2D2C22",
"$  c #322E21",
"%  c #353224",
"&  c #3B3523",
"*  c #3C3926",
"=  c #3A3629",
"-  c #3D3B2B",
";  c #373528",
":  c #433B26",
">  c #423E2B",
",  c #443B25",
"<  c #423F31",
"1  c #45422C",
"2  c #4B442C",
"3  c #4D4A2D",
"4  c #4A4126",
"5  c #544B2E",
"6  c #554B2D",
"7  c #54512B",
"8  c #444332",
"9  c #4A4532",
"0  c #4D4A34",
"q  c #4C4B3A",
"w  c #484838",
"e  c #524C34",
"r  c #524E3A",
"t  c #554B37",
"y  c #555235",
"u  c #5B5434",
"i  c #5D5A35",
"p  c #55533B",
"a  c #5A553B",
"s  c #5C5A3C",
"d  c #57593C",
"f  c #625D34",
"g  c #635D3C",
"h  c #695E3C",
"j  c #625737",
"k  c #666336",
"l  c #696436",
"z  c #65623D",
"x  c #6B643D",
"c  c #6C693E",
"v  c #71653D",
"b  c #736A3D",
"n  c #736D35",
"m  c #76723C",
"M  c #595641",
"N  c #565943",
"B  c #5E5B43",
"V  c #545540",
"C  c #625D43",
"Z  c #625F48",
"A  c #695D44",
"S  c #5E6143",
"D  c #5E6148",
"F  c #656243",
"G  c #6B6543",
"H  c #676943",
"J  c #6D6A44",
"K  c #646349",
"L  c #6A654A",
"P  c #65694C",
"I  c #6C6B4B",
"U  c #716643",
"Y  c #736C45",
"T  c #796D44",
"R  c #736D4B",
"E  c #796E4B",
"W  c #6E714C",
"Q  c #6E7147",
"!  c #757145",
"~  c #7B7344",
"^  c #74734C",
"/  c #7A744C",
"(  c #76784C",
")  c #7C7A4C",
"_  c #7E7943",
"`  c #6E6B51",
"'  c #6B6750",
"]  c #736D53",
"[  c #746F58",
"{  c #6E7250",
"}  c #757353",
"|  c #7B7553",
" . c #767A51",
".. c #7C7B53",
"X. c #777359",
"o. c #7B7559",
"O. c #7D7B5B",
"+. c #767B5A",
"@. c #827A45",
"#. c #82764B",
"$. c #837C4D",
"%. c #86794B",
"&. c #837C53",
"*. c #897D53",
"=. c #837C5B",
"-. c #8A7F5D",
";. c #847753",
":. c #847E61",
">. c #7F814E",
",. c #7E8153",
"<. c #7E825A",
"1. c #85814D",
"2. c #8A834D",
"3. c #8B874C",
"4. c #91894C",
"5. c #91854D",
"6. c #97914C",
"7. c #848254",
"8. c #8B8455",
"9. c #8C8A55",
"0. c #85835B",
"q. c #8B855B",
"w. c #85895C",
"e. c #8C8B5C",
"r. c #878956",
"t. c #928655",
"y. c #938B55",
"u. c #988C53",
"i. c #93875B",
"p. c #938C5C",
"a. c #988B5D",
"s. c #8D925F",
"d. c #8F9057",
"f. c #959155",
"g. c #9B9355",
"h. c #94925C",
"j. c #9A935C",
"k. c #9E9B5D",
"l. c #9A995A",
"z. c #A2955C",
"x. c #A49B5C",
"c. c #A69B5A",
"v. c #A8A25E",
"b. c #B1A85F",
"n. c #868361",
"m. c #8B8463",
"M. c #8D8B63",
"N. c #8E8969",
"B. c #938C63",
"V. c #9A8E63",
"C. c #938D6A",
"Z. c #938761",
"A. c #8E9263",
"S. c #949363",
"D. c #9B9464",
"F. c #969A66",
"G. c #9D9A64",
"H. c #95926A",
"J. c #9B956B",
"K. c #9C9B6B",
"L. c #969868",
"P. c #9A9471",
"I. c #9D9B73",
"U. c #999573",
"Y. c #A29464",
"T. c #A39B63",
"R. c #AA9E65",
"E. c #A39C6B",
"W. c #A99E6E",
"Q. c #A0966C",
"!. c #A49C73",
"~. c #AB9F72",
"^. c #A49C78",
"/. c #B09E6C",
"(. c #9DA26C",
"). c #9DA271",
"_. c #A5A464",
"`. c #ABA465",
"'. c #ABA965",
"]. c #A4A26B",
"[. c #ACA56C",
"{. c #ABAA6D",
"}. c #B2A564",
"|. c #B2A56B",
" X c #B3AC6B",
".X c #B9AC6C",
"XX c #B4AB64",
"oX c #B9B36A",
"OX c #A5A274",
"+X c #ADA473",
"@X c #ACAA73",
"#X c #A6A17A",
"$X c #ABA47C",
"%X c #AEA97B",
"&X c #A5AA74",
"*X c #B2A674",
"=X c #B3AB75",
"-X c #B3AB7A",
";X c #B9AD78",
":X c #BAB174",
">X c #BCBB72",
",X c #B4B37C",
"<X c #BCB37A",
"1X c #B8B977",
"2X c #C3B474",
"3X c #C3BC76",
"4X c #C5BB7C",
"5X c #CABC7A",
"6X c #C1B57B",
"7X c #C4B66F",
"8X c #C9C378",
"9X c #D2C97C",
"0X c #ADA682",
"qX c #AFA981",
"wX c #B4AC83",
"eX c #B7AE86",
"rX c #BCB583",
"tX c #BAB686",
"yX c #C3BC84",
"uX c #C6BB89",
"iX c #C6BE95",
"pX c #CBC585",
"aX c #D3CB8A",
"sX c #D6C986",
"dX c #DAD588",
"fX c #D5CA94",
"gX c #D9D498",
"hX c #E2DB96",
"jX c #E4D68F",
"kX c #DAD2A3",
"lX c #F2EBAC",
/* pixels */
"q.&.q.w.(.w. .F.A.7.l.<.%Xy g Q A.M.F.(.K.(.M.,.@XM.1 ..p.[.dXhX;.R D.V.O.q.!.yXrXyX-X:XOX* G J 1  ... .,.F.F s  XK.y | H.B.D.E.",
"a u 9.7.r.S y (. .>.'.8XtX1 ( J F +.A.M.F.).w.Q 1X{ % U F F q.hXu 0 T t.^ / ..q.:X2X9.g.*X: k I # p e.( I I ..B k.].1 a.S.p.&.y.",
"9 > F F H p ( 7.W ( k.dXuXr J P D { n.).w.s.(.>.S.F 2 &.^ J I '.9 > T / F $.) a T j.t.XXD.& u F 8 d ..J P ^ G...) B.y V.D.K.J _.",
"r f r.J s z ) Q >.,.h._.uX0 F K D P D { <.A.&Xs.A.] 2 ! ( e.^ D.a t E R C g ^ q.I J E XXZ.; 3 d q ) S F F Q ..E.].-.a ..e.V.e.`.",
"y 2 1.( 0 ) ,.( ,.W c r.G.a ( I P +.V N N D B F &X0.e s R r.y 0.t u i.F r } p r.9.R J @.J.X % 0 d s p B s p ( 7.'.m.t 7.q.p.e.oX",
"y 2 J ( H Q ( r.>.z ( >.K.| s L N N w w w w 8 > 0.M.o - 9 > = A 2 > Y a u a.R u ~ z Y 4.D.* o * - $ < 8 w < 9 8 / B.$ - > 8 > E ",
"a r J ! ,.c >.S Q Q 7.k.J.m...J.tX#XtXU.m.N.0.M.B.-X!.I.M.O.S.,X> 2 8.^ G | 7.a #.C ! b e.J J ^ w.w.H.m.%XqX$XtXuX0XM.P.O.B.E.P.",
"a 1 d i s ( d.( Q Q s d.0.t R e.E.q.pXq.b S.q.K.^ h.@Xh.9.| l |.< > t.D.^ | 9.B 8.J s _ R 3 ) 7.>.( {.q.~ G.<XpXpXH.OX,Xn.r.R.-X",
"9 1 z s >.F. .} ( S d 3.,.u t./ H.| {.| f #.&.8.G q.7.1.Y ( g <X0 > U ;.$.R R ( y G s g.q.X x ^ Q 3 G...1 Z.E.&.K.I.n.O.0.C k.@X",
"9 1 ( s ! ( P d W Q r.k.S.u $.B.M.J E.| x ;.L ! 0.C $.c F z x q.t 2 L j &.R C O.C x U 2.e.* J r.( p.3X^ % A 7.&.J.tX+.D P s j.yX",
"9 % S s ) r.( d H ( >.k.M.u ) q.} 7.*X;.x #.L &.^ p &.F F R $.E.0 u R u R } K R } | s _ B.* I Q ( r.sX^ : d Z ] ( ..n.O.L J g.+X",
"y + ; ; y p 1 8 8 - y Q | * s K F p a...y t./ I I S J r...$.4.[.t : 8 r - 8 8 = > 9 % j =.o 1 q F i j.^ t B K I I M A.pXI ! _ +X",
"+.L 0.} ;.N.X.X.' } O.M.#XM V r q 8 L A 5 g.7.p p P I &.*.J @.*X:.| R I I O.L [ ` X.] ] C.M 0 p q q O.R G q.s } B.{ C 9.^ s z p.",
"a ;.V.8.;.sX*XG q.} ].F.K.uXfXrXG.G.@XZ : J G 0.C F ( / J J u.E.r G G.S a 9XD.E p.D.V.E.W.:XuX[.].T.-XR 5 a.&.e.w.n.d S Q I &.8.",
"6 U %.E U u.a.& J W F h.r.h.e.,.( v.D.L > g y *XM.s &./ L 8.g.D.9 ~ R z L $.) & U Y A i.a./ Y.-.$.z.sXE 5 T.S./ J.} q I L J 1.R.",
", ;./.| U 2XK.X y | p F | 9.s.e.3. XyXZ 2 | 0 G q.s L L ^ $.`.V.j a.y L / p.D.: ~ *.F F ^ *./ &.L &.Q.O., 8.D.q.L.I r F ^ ) ) p.",
", U V.C.E 2X-., F 0 ^ | F I  .7.) f.dXF u / a a ] R | R I ^ j.R.a g.I ^ / [.Y., v G A A / 8.;.q.L J q.[ & x G e.T.} C ..J ~ 9.Y.",
"$ A ;.yX#.2X-.= &.I ( ....{ J ( 9.2.8XA 4 u - 8 0 9 r a L J %.T.2 ~ $.7.( u.Q.> T U Y G ;./ G ) D.~ |.-.& 9 r y K p q y 3 y ~ D.",
"< = > t < ;.-.$ s F J Q } w.e.9.) Q y.O.t r - 8 M r Z M s A s C.t > ; 2 9 h ;.& U U a / 7.R U $.F v i.!.a a B p p q a q V B s I.",
"*X~.C.!.Y.uX] , F B J ( ^ h.9./ ) z {./ T ^ U | *X~.B.yX^.I.%XC.-.%XrX!.H.-XM., A s C G V.&.a.T.t.z.y.A O.0.K.K.pX=X} Z.-X$XK.J.",
"0.7._.@Xu.5X0.5 R p ..Q s F.( c ) c 8.2 2 v b T %.a.u t.} I H.B 0.<X4X@X7.8Xm., h y U a.&.V.r.&.i./ i.0 - y Q y r.[.. ~ #.! ].[.",
"^ 7.R G.p.|.q.* J q g 7.I H ^ s H / ) > j T E }.2X~., A F F B &.^ 8.j.O.z .Xq.% j I i.R.D.Y.R M 7.0 *.F - F ( s c T.% Y $.i...J ",
"D.^ s 9.y.j.X.X I F q ( ,.( S i ! ! j.a 6 @.t..X3XE.5 s F V./ &.&.j.I F s j.-., j U &.D.D.R F E s 2.|.a : z Q ) >.7.% u 1.w.r 9 ",
"F B ) p.1.R.=.O p s F 0 i L S s s k z.6 b Y.z..X.XV.X U -.O.7.I &.&.s ^ &.'.-., U G A 8.-.R C ^ h t.R.a y s H A.1.7.> y Y p 9 r ",
"J z h.7.) }.n.2 8 > < = # ; * # X 1 ! : O 5 2 y e ] O a Z r R &.O.S 1./ F $.0.& 9 8 a < < 0 V 8 r 2 -.a + > 0 1 0 ^ > u a a F a ",
"K F ! z ) _.q.| B.7.H.].V.[ R O... ...s ..L ] ] -...: C % u &.q.e.&.( y Y x.B.&.0.N.!.M.^.:.C.O.N.C.$XJ.P B B F } m.2 J F J p p ",
"! ! J ! ~ x.a 2 ) H / XX_., 2 *.2./ ) ~ R.p.m 2XjXB.% a x r.V.r.! ! F x 4.XXR 1 B P K D.hXL ;.| O.} L.A.A.e.h.(.k.B.0 u u ) ( ^ ",
") a 7.1.@.k.y 5 ( P ! f.a.& , h t j c 5.~ j #.oX.XV.  > G 8.J / &...B / u.9XF 0 K d F G.gXa z &.( S...^ ( ^ ) Q f.M.O 2 c c 1.G ",
"7.7.7.! 3.g.r 7 i d Q 1.r.& , u v 2.Y $.U J $.2.}.=.X , s *.$.p.0.B z ~ ~ c.C a M s ( D.gXt #.7.7.} F s...) Q z g.i.% f ~ ~ Y &.",
") h.( f 1.8XF 3 ! d g >.7.O O %.%.#.x 3 ~ #.u.t.}.q.> f g j.D./ ..i ) i.#.v.L 8 q S.M.[.dX9 J | p.0.A.( e.e.H ( '.q.- h z Y ! ) ",
"1 - - 1 + @.a X z p 0 s ! & 2 6 @.x g e Y Y #.%.g.Z.o ; - y 9 < % 0 F x & p.F = a O.O.p.uXy G 7.7.p.M.I 0.s.( h.r.q.$ = > 0 r < ",
"L B M B p O.} * 0 0 ; 8 &.> , b v r 1 a g y s 9 T p.0 r M 8 q w 9 V 8 r } C.} # < w B K C.0 / q.+.w.+.w.} ) ( ) G.!.B y K I B F ",
"z s G | 7.D._.@Xh.a.p.g.rX, , h y h L G h J y y b ^ ! 9.{.7.y 9.} r *.*XY.Q.D.E.^ V.R.R.yXa C 7.e.M.w.0.S.w.) k.>X&.a G J F J r.",
": , u f f i ~ 1.m 1.2.@.Y., j u a #.u t R i.R f j.q.3 0 d d 7  X2 > %.l $.*.| R G 8.u.}.~.r y T.L.} +.} F  .G.p.h.C , G r C F R.",
"; @ 7 7 x i - y y k g.@.-.2 h T / L j G U #.U j 2.q.* p % - i '.a & U j R *.-.M R #.a.8.Q.C j ..0.+.+.D P Q ( P h.F 4 h F 2 f j.",
"> , 5 f F J 3 - s s m z.E.2 h E T C $.$.8.8.~ / 8.&.* y ; > i oXt % h #.i./ B A E *./ ~ ~.C F R H ..0.K.S.e...F h.I e x G s e / ",
"4 2 e l Y r.! 1 s s ! 7X-X, 6 h e g E t.Z.L j h #.;.> B F d k h.> , b t.U a M / V.G ~ z.~.A t t P F | H.L P M y j.-.1 g u 3 3 l ",
"- 2 x L ! ! G 3 k &.f oX;Xa > < < = t a = < ; > u ;.O ; # * - Y < = j C a d *.p.Y.R E }.yX' < > 9 V q w 8 q B 9 J O.. % X # % 9 ",
"* 5 y z z J s y J Y b 2.W.F q.%X!.Z.J.O.:.C.M.C.H.^.| ..0.| R m.: 5 A F G R &.| G t.-.z.;X:.Y./.!.Z.-XP.J.yX#X-XrXM.H.0.z ) G.%X",
"t 4 x 1 y ) w 0 z y #.i L 3 Y j.| q.gXq.j $.q.^ q.7.{.@Xr.1.h.m.< > G r t J.;.Z.Y.-.E /.6Xj -.a.Z.-.5X;.4 x.u.T.3X0.^ d.J k 6.g.",
"a % t i z R 3 d J z y.r.0.9 / | &.^ E.&.: Y R 9 R / 4X[.].8.4.].t & M < | *.*XZ.q.E Z.|.Q.A V.-.-.-.a.;.  T / G ( B z _ J k _ g.",
"F & g f J J r O.h.Y 2.v.e.2 7.} 9./ R.O.: ! / 1 F $.) k.`.{.v.6XA 5 h A E q.E.[ r q.D.i.Z.#.Y.-.~.P.|.n.> J L C M.F ! ) ! ) c.9X",
"r , Y ~ x J I r.g #.y.h.G 4 D.0.=.} G.Y : g s 8 J ^ Y h.[.2.@.oXC , A E Z Z.] ] Z R | / 6XA Y.;X~.Z.*X;.4 L s I ) R ^ 7.) s b.:X",
"> , & > > 8 : > % ; 3 i |   a F p 0 ..L , g p 8 g J ) Y _.Y @.3X< , a < 9 > - 8 8 9 9 U wXt A Z C < i.7.> U / R &...F t.j.J v.4X",
"&.] M.M.M.=.] I ] ] K =.J.0 8 8 - - ] R 2 T a r 3 9 s c Y ~ b 3.] A B R :.O.[ [ [ [ :.P.^.O.] X.] ` :.;.u $.D.} R q.O.r.x.! '.6X",
"y J &X(.e.(.m.J e.Y a =Xq.D.&Xd.^ $. XA & Y B - - s 3 k l k n 2.t a R :.:.;XE.A ~.B.=.H.-X-X:XyXC.R.fXo.u / ;.E.7.9.p.&.9.9.x.aX",
"- i >. .S l.8.5 x y 3 J ..1.r.s B ~ g.a 2 / u p 9 z 7 z ~ b 6.x.% > 9 a 0 D.Q.O U | C ( J.a.h.].| U 6X-.u Y ! 4Xq.T.H.p.j.7.x.pX",
"1 F Q s.w.v.D.> T J J J y ^ Q g F 7 y.L 2 b z c J k c ..i i f $.$ A ] L ;.6XE.O J #.R =...G.E.e.| q.Q.;.j *.e.Q.S.<XB...{.E.`.+X",
"* S ,.e.e.9.7.5 h f Y / y k H h.d c 4.C 6 f 7 Y i J J ( 0 # k j.. f ;.C g |.V.+ f Y R q.D.].&.e...j.aX;.u ;.a.e.*.@XrXB.=XD.y.<X",
"> Q  .,.J _.e.> b s z F z ) c 1.@.4.j.y O O : 2 1 z s u 2 % 3 ) $ e L q 0 &.Z.& J *.^ R E.G.7.q.7.j.aX:., g s } } O.OXZ.9.I / ;X",
"9 1 0 w - ( / + x s p u J y ) 1.m 6.'.L + > = = = $ > 8 0 - ; R < X = # # 0 ..> 2 8.7.] B.9.9.R B j.6X^.M L ] Z Z Z Z [ +.I L $X",
"&XI.I.S.K.,X=., j s 0 s y 1 s m k ~  XR m $.i.&.) B.&.&.Q.B.^ O.O.R p.Z.J.H.n.4 A #.$.| q.e.} } 7.V.6XQ.+XiX^.N.#XiX$X%X$XwXqXwX",
"A.F.F.,.{.>X=.> g J z y ( B 0 7 y _ g.> 4 x Y u b t.< v l a 1 r - 8 r L / t.m., Y x / e.p.w.C e.q.j.5XE i.N.O.+.+XfXJ 7.s.w.e.w.",
"w.<.w.( s.>XM.: z Y / 7.J d s F s ~ b.2 u Y f x ~ z.& u h < q y t u h Y f .X-.4 Y Y &.7.0.O.I V.e./ pX} E ] O.C.rXgXy ,.e.e.W <.",
"&XA.A.( s.>Xr.3 h z F 7.s J ( ( s ~ .Xu l h #./ 5.z.: U ;.j t 1 E Y p.;.*.5X| 6 g R D.q.e...D.H.L 8.sXU F X.o.N.gXgXu ) S.s.w.(.",
"&X].s.<.>.(.<.: g g q s i F x F s i Y.j T %.! s @.j.> h v a r j / Y W.pXa.|.m.y U g e.L F &.J.Z.L 8.:XL i.P.I.wXlXkXg ) G.A.e.(.",
"(.(.(.w.Q oXJ.8 d q r 0 8 8 q 9 q 1 J 9 * 9 8 - u i.5 t J u *.R *.D.;X;Xt.;XM.: j 9 M V 9 C Z M s I C.L t Z B ' OXpXg 7.e...G.1X",
"F.).s. . .S.C.;.+X^.K.uXqXm.U.^.%X&X#XC.M.C.A.L.Z.N.= : E ;.R &.[.=X<X;Xr.D.C.V.~.0XiXyXwXU.0X0X0XeX#X$XN.U.#X#X0X0Xz e.,.S.F.A.",
"F.<.P ( ,.h.R T e.&.x.aXpXC z r.A.&X(.<.).,XpXpXsXOX% % U / | *.| E.-Xq.&.V.C ;.~.uXfXyXyXE -.D.K.OXH.,XU.@XaXpXfXeXg h.s.F...M.",
").w.l.r.>.>X&.T ;.R W.].pXr F 7.S ,.{ D K d r._.oXJ.> r j *.E G | &.W.| -.V.a U V.~.Q.;XwXt U *.0.0.I } M. .G.G.pXeXa e.0.w.w.A.",
"A.s._.d.v.oX .s &.E.D.k.yXa f S.n.<.P N { { W Q ].I.> u #.U L q.+XJ.B.X.s a.C t | ^.=.pXfXe F I L ..<.` s...7.=X3XtXy ) d._.&XA.",
"<.<.Q ( h.'.P Y a.p.E.T.5Xa z } A.<.P P +.A.{ Q (.H.: #.a.] U Q.J.Z.=.B L ;XA 9 C [ E Y.pX0 z F ) I <. .X.} 9.[.dX-X2 ( _.(.w.} ",
"S B d Q z '.R ; s F K R +Xe 8.7.<.L.<.<.<.&X<.s.1XH.: 2 < t q a B a < = > |.A r M V ' E V.a Y ^ 0.0.,.0. .{ j.].XX@X- 3 d 9 d w ",
"P P P  .] H.:.: w q 8 q =.9 J h.&XtXA.).).).w.7.*X0XL M L [ o.O.L ' ] ' M B.O.; = # = q E e z 1.J }  .W ..} R _.$.^.=.I X.+.+.O."
};
