/* XPM */
static char *result[] = {
/* columns rows colors chars-per-pixel */
"64 64 256 2 ",
"   c #693E31",
".  c #71493A",
"X  c #754C42",
"o  c #7A5849",
"O  c #735A4D",
"+  c #7A6659",
"@  c #76624B",
"#  c #7D6E63",
"$  c #854E3B",
"%  c #995E3A",
"&  c #885948",
"*  c #975C47",
"=  c #975F52",
"-  c #865B50",
";  c #A45C48",
":  c #AF5D4C",
">  c #94644B",
",  c #9C644C",
"<  c #996B4B",
"1  c #886859",
"2  c #9D6A53",
"3  c #966857",
"4  c #997555",
"5  c #8D6C50",
"6  c #A3644D",
"7  c #A36B4D",
"8  c #AA6B4C",
"9  c #A9654A",
"0  c #A7724D",
"q  c #A56C53",
"w  c #AC6C54",
"e  c #AB6D5A",
"r  c #A66654",
"t  c #B36C55",
"y  c #B76C56",
"u  c #A47353",
"i  c #AB7454",
"p  c #A5735B",
"a  c #AC725B",
"s  c #AC7C5C",
"d  c #A77B57",
"f  c #B37355",
"g  c #B37B55",
"h  c #B3735B",
"j  c #BB755D",
"k  c #B47C5B",
"l  c #BC7B5C",
"z  c #BB7555",
"x  c #B66B4C",
"c  c #856D62",
"v  c #966E63",
"b  c #8A7769",
"n  c #967667",
"m  c #8A7C72",
"M  c #987C72",
"N  c #AB7C6B",
"B  c #A87764",
"V  c #B47663",
"C  c #BB7562",
"Z  c #B57B64",
"A  c #BC7B64",
"S  c #B47D6A",
"D  c #BC7D6A",
"F  c #B57569",
"G  c #B37367",
"H  c #C4795B",
"J  c #C37D64",
"K  c #CA7D64",
"L  c #C37D69",
"P  c #C77965",
"I  c #C87F6D",
"U  c #AB825D",
"Y  c #B4825C",
"T  c #BB835C",
"R  c #B08251",
"E  c #8D8377",
"W  c #968678",
"Q  c #9B917D",
"!  c #97806A",
"~  c #AA8465",
"^  c #B48464",
"/  c #BC8464",
"(  c #B5826D",
")  c #BC836C",
"_  c #BA8B6C",
"`  c #B88A66",
"'  c #BC9267",
"]  c #A98778",
"[  c #BB8574",
"{  c #BB8A74",
"}  c #BB8D7B",
"|  c #B38977",
" . c #BB9379",
".. c #AA9276",
"X. c #B8A07B",
"o. c #C4835B",
"O. c #D2805D",
"+. c #C48364",
"@. c #CA8464",
"#. c #C4836B",
"$. c #CB846C",
"%. c #C48B6B",
"&. c #CB8A6D",
"*. c #C58A65",
"=. c #D4876A",
"-. c #C7956C",
";. c #C48472",
":. c #CB8573",
">. c #C58B74",
",. c #CC8B74",
"<. c #C48C7B",
"1. c #CC8D7A",
"2. c #CA877A",
"3. c #D38C74",
"4. c #D48D77",
"5. c #C49374",
"6. c #CB9374",
"7. c #C2937D",
"8. c #CC937D",
"9. c #CC9C7C",
"0. c #C89A77",
"q. c #D39274",
"w. c #D2947C",
"e. c #D89879",
"r. c #D59669",
"t. c #E39778",
"y. c #D8A57B",
"u. c #CCA87D",
"i. c #E2A47C",
"p. c #9C9385",
"a. c #968D84",
"s. c #B58E82",
"d. c #A79889",
"f. c #B69687",
"g. c #AA9D94",
"h. c #B79A91",
"j. c #A78D84",
"k. c #B5A58D",
"l. c #ABA395",
"z. c #B7A998",
"x. c #BBB19C",
"c. c #ABA38D",
"v. c #BCB4A5",
"b. c #BDADA1",
"n. c #CB8E84",
"m. c #C59383",
"M. c #CC9483",
"N. c #CC9B84",
"B. c #CC9C8B",
"V. c #C59A88",
"C. c #D39482",
"Z. c #D49B84",
"A. c #D39D8A",
"S. c #D99D8B",
"D. c #D99885",
"F. c #CD9B90",
"G. c #E19C84",
"H. c #EA9D8F",
"J. c #CAA589",
"K. c #D3A28C",
"L. c #DAA38C",
"P. c #D7A787",
"I. c #CAA797",
"U. c #D4A493",
"Y. c #DAA593",
"T. c #D3AA93",
"R. c #DBAB93",
"E. c #D4AB9B",
"W. c #DCAD9C",
"Q. c #D7A59A",
"!. c #C7B39A",
"~. c #DCB39E",
"^. c #D6B59C",
"/. c #D9B38B",
"(. c #E5A68A",
"). c #E8B48A",
"_. c #E4AA96",
"`. c #F3AB95",
"'. c #E6B599",
"]. c #F3B699",
"[. c #F7B688",
"{. c #CDAFA5",
"}. c #DBAEA1",
"|. c #D5ACA1",
" X c #CBBDAB",
".X c #C6B8A7",
"XX c #D4B3A3",
"oX c #DBB2A4",
"OX c #DDBAAB",
"+X c #D7BAA6",
"@X c #C6BDB3",
"#X c #D9BCB3",
"$X c #E3B4A4",
"%X c #E3BCAB",
"&X c #E7BAA8",
"*X c #E4BDB4",
"=X c #EDB8A9",
"-X c #F7C699",
";X c #EAC69B",
":X c #CCC1AA",
">X c #D8C5AB",
",X c #CBC4B4",
"<X c #D4C4B3",
"1X c #DDC4B4",
"2X c #DBCCBB",
"3X c #D7C8B9",
"4X c #DCD1BC",
"5X c #D8D4BE",
"6X c #E4C3AC",
"7X c #E8C6A7",
"8X c #F6C7A9",
"9X c #E3C3B5",
"0X c #E4C5BB",
"qX c #E4CBBC",
"wX c #E9C8B7",
"eX c #F7C9B5",
"rX c #E3D3BB",
"tX c #E9D3B9",
"yX c #F5D5BA",
"uX c #F9D6B8",
"iX c #F6D6AA",
"pX c #FDE7B6",
"aX c #D8CCC4",
"sX c #DCD5C4",
"dX c #DBD6CA",
"fX c #DBD9D3",
"gX c #CECBC2",
"hX c #E3CDC3",
"jX c #EACDC4",
"kX c #E4D5C3",
"lX c #ECD4C4",
"zX c #EBD4CB",
"xX c #E5DCCB",
"cX c #E9D9C9",
"vX c #F5D9C7",
"bX c #ECDCD4",
"nX c #E4DCD6",
"mX c #F5DCD3",
"MX c #F0CEC9",
"NX c #ECE1CA",
"BX c #F7E4C9",
"VX c #EDE3DB",
"CX c #E9E4D8",
"ZX c #F2E4DC",
"AX c #FAE9D7",
"SX c #FDF4DA",
"DX c #FFF6C3",
"FX c #ECE9E6",
"GX c #F4EAE3",
"HX c #F6EAE5",
"JX c #FCF4EC",
"KX c #FAF5E8",
"LX c #FEFBF4",
"PX c #FFFEFD",
"IX c #F7F6F4",
"UX c #EBF0F2",
/* pixels */
"; `.H.P v d.xXwXPXKXd.M #X&XY.e #Xz.n.F.;.C 7 q  .zXbXD 6 J yXW X D y r v @XxX%XeXtXg.b 7.H J V I.z.V 3 2 } @XzX} L J J j `.GXb ",
"d.& r v 3XhXB 6 9XzXiX.Xb v d.:XXXe I *Xm.:.a < V.bX#Xe , S 4.6Xv.c - g.xX^.) ,.=.(.uX:Xb * 3 XX1Xp _.S., q.B V.} * $.$.,.e.eXSX",
"BX,Xb.IXU.C 8 q i A l ).tXx.1XV.* * : n.L L A * | JX{., q } S P R.2XaX+X| * y S.) x O.[.yX!.+X}.H.I [ $.4.C.J j 6 >.L.Z.@.~.A.$X",
"P uXZX0X8.j a u i k 8.0 r.cX1 : F e r I 2.V V 6 7 N.>.h V e P ].#.'..X> {.m.J $.e o.w.&.(.vX4 : G :.eX;.>.L J S.A %XU.$.P K.OXJ ",
"4.vX.XI.A.f h u q 0 *.U ^ !.5 B.}.H.F F.oXD V q q w _.7.f h w.].#XwXh.#XHX[ $.G._ z @.&.t.+X, K 9 I H.I w L #.8.2.OX+XE.3.D.e.P ",
"L.8X.X .T.8.f i 0 d ^ d T !.v _.*X}.I I #XZ i i i q 9.P.f / #.I.ZXPXz.hXGXL L I =.{ H q.i.6X3 : y n.y 9 * ; 9 y wXVXVXzXA t H C ",
"e.7Xk.8 N.T.g *._ Y u U i 6XO n.*Xn.C.jX0X_.A * * 2 k w.s s >.nXHXJXj.#XhXS.eX4.^.zXT H i.iX1 : D I y = * , r * m.vXvXaXC y =.=.",
"' >X..A.{ l 9.9X~.0.U U 0 7Xa.  L G Q.*X_.V.b W W + & / 6.) J.ZX#XsXh.#XfXnXbXmXZX6Xo.k.2XuXW $ D.r t = * $ 1 c X o V <.h 8 H `.",
"9X.XI.mXE.0 9XJ.^.U ~ d < T tXm . S |.S 3 l.kX6X8XtXg.O > Z N b.IX@XF.mXPXIXUX0XY.+.wXIXgX=X6X+ r P e * . W 3XvXAX.X1 . % j q ( ",
"^.m.M.#X) Y 1X` ` 4 4 _ ~ < T iXz.O n g.2XE.Z J 8 *.7XxX! O ! ,X3X{ U.&XIXFX9Xw.z A.KXPXfXhX8XtXW v F c k.cX8.D.vXKXAX.XO X ] .X",
"e U.C ) >.l +X^.4 5 5 4 d d u o.8XwX@X1XB & w S a ,  .PXLX3XxXzX{ < 9XR.'.zXA x +.ZXGXPXfXnX~.t.AXaXb.kXP.h y Y.|.4.'.8XyX,X.X7.",
"a n.B.M.8.^ T.9XJ.U 5 U d ` _ h $.8X.X2 A.N q Z a 2 { xXGXKXh.}.{ ^ 6X+XR.lXS.U.%XwX0.T.LXFXXXH =.vX4XB 9 t C $.Y.S.C.I t.vX- $ ",
"r C C V A i XX1X+XP.4 _ J.' / q l vXg.F.mX*XB Z a a 6 OXJXzXg.V.R.T.T.1XJ.(.AXGXGXN.g O.P.6XoXY._.C.d.* h h j J J ,.4.K =.6Xn = ",
"6 h V r / i N.J.^.0.4 s ^ 6.h , z =XdX9XeX$X[ Z f a 7 a AXfXN m.E.J.J.T.Y R lXGX1X` T *.T e.wXOX_._.d.& w q h H +.J J J e.>Xn V ",
"6 w C D 5.6.k < s.K.7 q 7 >.+.w y =Xv.=X_.S.N V >.a w 7 e.NX1 ;.OXN.N.U g g  .I.9.' T ' *.6.rX0X* >..X* 6 , w y 3.L h j =.7X+ * ",
"r h j ,.^ > n p.p.1 6 h f 8.#.f r 3Xs.wX$XF.[ e A j j Z @.8Xp.3 K.U.yXJ.` B @ 5 E v U ' -.cXKXL.V ^.W , > B r , h j a A H =Xg.  ",
". e C C v z.rXyX8X>X! $ V.OXN.* !.z.D #XzXC.e V $.A C.A ,.8XvX# ] oXZ.~ 5 c.sXNX5Xl.O 5 u./.).` ] 4Xn * > | B L C L $.$.S +.rXd.",
"b.1 o .XfXJ.T g % '.LXx.b W W  X+X6 2.jXnXI.h V Y.w.,.) i L.AXBXg.1 - d.gX3XJ.' X.KXCXd.c 4 ~ ,XdX] 3 > 2 2 V ,.L h P K L A q.uX",
"uXlX5XbXbX/ f i k 0XqX_. Xd.>Xm.; h F M.U.%Xh V $.w.1.i Y w.%X7XBX.Xb.NX X .f.k.x.fXFXPXFXl.,XNXm.D n.q > r S w.wXn.j e Z A H e.",
"S.].@X<XbXuX).%.j NX%Xj ].<X= : C ;.C :.[ *XC w t A S.J +.6.%XK.r.eXsX4 d T.rXJ.!.FXdXNXGXsXJ.2 [ :.S.n.e 2 L E.IXnX_.P p j H #.",
"R.7Xb.aXzXY.&X$Xw.bXmX$XuX@XX P F y P I _.#X2.I C 1.L.@./ &.$XN.s.e.z.5 ^ ^.>X . .ZXHXbX;X5Xn / S Z D I L e e VXUXnXmX2.a l 7 i ",
"o.7Xz.#X6X8.lXyX(.ZXIXHXAXaX& C C.G.I I D._.;.$.,.jX*XA.H #.R.{ { D.x.> U J.J.R !.FXZXHXlXrXB / 6 r a h C t I.HXJXnXFX%X/ h p k ",
"o.~.v.#X6.8.1XaXZ.lXZXmXJXVX- C n.P H P P I $X2.C.=X&X~.&.&.w.C.J P.z.2 _ ^ U ^ E.bXbXbXPXCX- h ;.1.a h C e S bXFXGXJXvXP.f.2XJ.",
"' >X#XnX .J.^.T.OX1XZXZX%XyXW r F.I y P P t._.h.M N M._.S.$.Y.(.z +Xf.^ %.d ^ ' 9XFXxXxXKXKXc [ _.B.j V C 2 $ W g.g.xX'.].FXaX1X",
"5X XqXLXIXKXP._ cX;X<X3Xx r.rX+ e P P P r I.UXbXaX@XW ] 4.K $X) | 3XB } ) u s ^ ^.VXxXZXNXBX4X@ B A t h 1 ! <XlXZX3X! o u.pXgXQ ",
"2X1X2XbXIXBX/. .+X7XtXxXT.U.BXnXW - = ] @XxX$X4.$.'.cXv.c N s.h.kX} t.Z l k u R u.qXZXqX9.e.KXrXm . . M 3X4XGX&X*XPXKXv.c n  X5X",
"%XzXhXbXKXtXBX7X+X4Xu.7XJXJXZXP.eX@Xb.hXm.$.D.Z.A q j '.kXz.3XMX[ ; J ,.q f u Y P.'  .*.9.9.~.].AX.X.X2XM.U.$X*X_.GXbXPXAXCXNXJ.",
"P.lXZXjX;XtXNXpXpXpX' *.AXZX^.f H =X#Xs.U.Z.$XW.Y.<.( A (.ZXz.n.D.2.#.y y h h J wX .0 %.5.6.U.W._.uXkXdXE.oX9 W.6X1XnXI.y.>X3 k ",
"-.J./.0.u.+XNXiXiX;Xy.R u.P.>.Z H i.b.@XOXF.oXE.'.4.'.zX$XvXM n.3.C.C.;.,.l w L A.oXT T +.A.9X%X/ +X,XgXzXM.6 ~.&X_.ZXN.r.>X- l ",
"$Xg Y 6.K.y.7XyXDXy.y.-.*.q.{.L H G.v.{.#XXXQ.K.8.D B.B.e.cX1 2.|.:.;.oXY.A t / U.7.j #.1.%XzXN.a 7XgXdX0XA.>.W.oX~.~.E.AX5X& o.",
"K.9.T *.-.^.qX!.0./.y./.r.uXVXh y wXhXe #XGX1.j K.&X[ a @.vXj.B F.Q.Y.I.{.U.x 8 n.w.oX2.A U.zXXXY 9Xb.MXA.Q.W.Y.vX$XG.lXIXfX. o.",
"P.-.T -.P.!.d.W Q Q X.e.@.wXzXL H kXh.V V.2XA | 0X^.<.N r 8Xl.& C G A :.MX{.v W c n XXW.A.N.qX#.J.sXj.>.) oXM.,.8.@.$.6XPXAXb i ",
"U -./.U ! v.sXtXAXCXc.& t G.L & .X.XV v * S <.~ V.2 A (.[ 3.vXm v * y C N z.xXvX^.z.b v [ W.{.M xXf.i 2.<.K.M.M.>.w $.t.i./.sXO ",
"Q b Q X.4X^.` -./.;XuX<Xb 1 V.CX{.V S.S p >.7.[ A.f.B A 1.y ).BXa.. & W ,XzXQ.H K (.yXl.1 j..XCX@X$ Z A [ B.oXW.) #.3.G.$.6XSX5X",
"iX:X:X!.~ R T -.u.Y o.].uX4XaXE.C.S.[ C N.<.} 8.L.W.{ Z h j H (.vX+Xz.xXI.U.Y.P $.r 3.8X:Xx.>XN.oX<.a Z V.*XoX[ ( L.q.3.P.KXP.r.",
"o.pXx.$ i T T *.&.L.~.w.=.tXB.C = C.D L #.M.} 1.(.A.S.7.6 #.$.J =.eX Xs.D }.%X2.$.,.7.D.D.5X. ;.V.w.M.( I.jXXXp ( K.G.=.Z.7X*.0 ",
"O.iXQ % H $.&.,.w.L.L.%.=.7X4 3.) p L A >.A >.N._.m.>.].V h L J A.(.z.3 V }.*XA 1.m.U.MXuXnX1 D C.}.Q.Z.M.3X#XZ W.%XoXG.4.@.H o.",
"y.-XQ , I D.3.$.J U.L.A =.tXM C.#.2 s V #.[ #.,.S.<.D `.=XA 1.,.A.8Xk.B ) #XoX>.U.T.XXzXyX#XS n.2.$XE.E.F.aX} B.*Xw.K.eX`.&.r.y.",
"y.;X..z K :.:.C.3.Y.K.+.H BXh.m.:.#.B B 2 %.Z L A.| C _.=XQ.R.8.e.'.d.w V.Q.>.M.K.N. .) 4.I.b }.m.$X}.<.U.qX%Xh.| #.=.K &.r.P./.",
"-.>X] $.x x :.A.S.'.R.P.z ).b.o V.(.Z l ) p v W W 1 * `.eXoX<.K.B.>X] Z N.A. .T.'.Z.m.B 9.1X# F m.M.2.#.F.f.W g.E + * @.H o.P.'.",
"+X!.1.;.E.f.L _.#.%.) &.+.&.DXv.v 1.q.p B z.,XkXuX2Xd.o E.vXU.j.<Xk., h ) [ , Z ( ^  .P.5.-XsXm - w i q W .X:XlXwXtXl.o 8 r.*...",
" X7.,.e s.;.I S.&.8 %.6.o.&.-XSXv.+ 5 W :XtX0X| S.y.yXfXa.M f.<XI.$ 2 a 0X{.7 2 <  .R.L.K.9.uXSXW . & ] kXOX<.p a q.uXrX! o ..2X",
"M.A.y C 2.2.L n.A.Z #.g k *.).y.iXfXsXLXkX6.T.T.K._.`.vXjX X!.V.S F , V {.| , n 5 p R.~ %.L.P.).yXv.x.cXzX_ ,.{ p { q.(.uX3X1XB.",
"OXM.L I n.P L }.$X{ u g i 0.J.-.d JX,Xf.7./ 7.~.MX=XN 8 e.KXv S *XwX[ e q * N #X .a 7.B k Z.8.>.=.pXk.( J.i } | [ {  ., e.rXv ;.",
"n.F.U.Q.}.M.:.|.~.).s i Y ` -.' x.CXc.< d i '.%XwX8XS h H.tXQ.%X#XnX'.3.e 9 |.jXB u 6.N.a ,.( 9./ 7XE 6 0 < 0XqX_.M.Z q i.>Xo 2.",
"L D ;.1.C.n.1.e.r.P.k i R Y U U ^.LXp.> 4 s P.7Xy.`.,.j r.wXd.wX9XbX&XJ I 9 hXhXq Z k B N L D.[ l iXQ i d  .VXqX8.B.} a =.XX- n.",
"I L D L ;.o.{ Z Y T Y Y Y d U ' 6XJXQ 5 d ^ 8.5.i &.e.+.=.eXd.XXOXrXZ.A.}.3.#Xl.- | q.XXOXw i M.p ^...<._ 7.GXW.M.R.w { 8.6Xn I ",
"F I D #.A 3 E g.# @ 4 0.U 4 U ` ^.CX! 5 4 0.K.g ^ >.#._.(.8X,XQ +X&X&.%X*XB d.@X,XE h.bX{.7 E.mXV..X] oXK.F.nX3X9XY.E.ZXZ.=Xa.* ",
"= P I G 1 ,X4XyXBXAXc.! ~ U ! @ <Xk.< u.4 ` 9.5.~.7X=XN.wXyXpXx.# U o. .g. XNXT.y.uXgXW - {.aX{.3Xf.| aXI.I.GXHXGXzXbXvXZ wXfX+ ",
"M O o g.CXI.~ s ' i.SXsXc.@ ! :X^.< 4 '  .` J.` -.q.].L.E.tXNXSX,X# 5 x.>XJ.6.8 8 l -XBX@Xm b.JX.X3 C.jXMXB.bXbXbXbXB.,.K.IXLXVX",
"KX<X{.<X( i ^ u.U i u.KXIX:X>X' k / 0 5.!.^ ^ s d d / e.-X).P.iXDXxX,X!.0 9 H -.T i q.;XHXnXMXmXMXS F.a s.oX0XVXhXm.e N bXZXZXJX",
"ZXmXl.* 8 0.P.y./.' T.BXpX:X5 % i g 0 s ^ _ Y 4 < d s 0 i.-Xi.-X[.pXx.% 0 d 0 *.*.0 +.P.ZXCXM *XmX@XU.> | 9X<.vXI.8 C.#XdXzXbXmX",
"mXKXb.N | q ` *.e.6XrXtXpX,XO 7 y r l `  . .k 4 5 < 4 7 '.-XyXyXtXDXv.u R 0 < T +.u 7 J.UXv.n =XmX#Xm.S f.}.XXW.*X*XJXAX| H oXHX",
"$XAX@XU.A.[ a %.y.AXPX2XtXKXn , I C i / w.g i 2 u 4 u g q.t.*X6X/.pXv.r.r.g g 0 +.0 0 !.LXdXn oX*X*Xm.}.F.I.E.( %XHXFXZXD D 4.A.",
"&XAX XB.A.U.8.9.` 6XKXwX9XLXs.G D D , h / j , - 0 Y k l r.r.(.lX(.;Xk.i./.'.(.j l i u ` GXHXE B.n.G m.F.m.F.S $ [ HXZXT.>.#.:.#.",
"wXxXf.&X*X'./ h Z XX&X(.P.JXg.& * * 6 i q , @ + + O p P.q.w.4.'.W.kX< (.wX~.w.j z i g < ^.PXc.. G F m.F.D 3 + b + c [ Y.Z J +.$.",
"xX{.[ W.1.A.#.3.].f.C.K.$.8XKX+ . * w q & c.VXKXcX XE b [ K C f.xXI.; 9X].8Xq.8 +.k q < 0 lXBXE . F 2.] M z.1X7X8X Xm M C L l D ",
" Xr 2.C.j j +.=.].L.&.D.Z.D.8XcXE . X ! <XBX^.jXtXOXJX.Xc - d.aXI.V y $X8Xe._ , k #.i i i g ).SXp.O n z.4X6XB.>.w.].SX,X1 & M .X",
"6 y 2.$.y y $.,.t.4.Y.+.4.,.(.;XtXx..X X] i N.F.zXUXnXGXCX@X#Xm.C C.J A.JX&X` 2 i k k ) T 0.0.7X8X,X X+XB.N.oX>.N.N.'.AXrXz.kXI.",
"9 P 4.K A w.P L.}.w.w.J +.K r.$X(.uX3X3 , B $XjX*XtX#X>XZXVXv y D ;.y F.jXAXP.< *.9.%.6.^ -._.N.H uXk.& w B.;.>.#.M.W.$.e.mXv % ",
": H I 2.D.Q.S.S.OXhXL.$.&.A 5.Z.6XBXv.r Y.| %XoX#.+.0.e.e.tX3 y ; C 9 N.%XwX'.< ` P.5.` d T '.^.#.(.d.> a D j 1.8.K.#.q :.<XX : ",
":.P 4.P K K I 4.D.*X%XW.*.{.UXm.J vX,XS `.m.B >._ _ *.*.4.>X& 9 e C I J 4.B.W.s g g -.5.d H y.W.#.(.W s.( e ) L 1.>.h h 3.<X& x ",
"I P j y y y y 9 9 :.$.w.3.w.OXf.9 eXl.V L #.p i m._ i #.=.6Xo ; P L C C P Y.9X, 0 i 6.0.T f ,.~.A &XQ f.| N ) R.8.L D j H 9X3 y ",
"H H.I y = 2 1 b v - ) ;.3.4.A H s.BX] m.A q q s u } m.a y ].a.& P F J ;.L } W W b o B.L.H f :.S.f.lX] N } 3 } E.Z.$.J J t $XM * "
};
