/* XPM */
static char *result[] = {
/* columns rows colors chars-per-pixel */
"64 64 173 2 ",
"   c #130718",
".  c #140C1A",
"X  c #1B0E1D",
"o  c #17121B",
"O  c #1A131E",
"+  c #1E1A1F",
"@  c #20161F",
"#  c #1E0E21",
"$  c #1E1422",
"%  c #1F1923",
"&  c #200F23",
"*  c #221424",
"=  c #231B25",
"-  c #281A27",
";  c #261629",
":  c #281629",
">  c #251C29",
",  c #2A1D2B",
"<  c #301E2F",
"1  c #2E1D31",
"2  c #321E33",
"3  c #252126",
"4  c #282527",
"5  c #26212A",
"6  c #2C232D",
"7  c #2D282E",
"8  c #30232F",
"9  c #312A2E",
"0  c #2E2531",
"q  c #2E2931",
"w  c #322533",
"e  c #392636",
"r  c #332B35",
"t  c #392C37",
"y  c #342538",
"u  c #3B253B",
"i  c #362D39",
"p  c #3A2D3A",
"a  c #353036",
"s  c #3A3235",
"d  c #3C3837",
"f  c #363139",
"g  c #3B333C",
"h  c #3E393D",
"j  c #412C3E",
"k  c #41353D",
"l  c #423B3D",
"z  c #4A433F",
"x  c #3E2E40",
"c  c #3E3441",
"v  c #3F3941",
"b  c #412743",
"n  c #432D42",
"m  c #423543",
"M  c #493645",
"N  c #433B44",
"B  c #4A3C45",
"V  c #463248",
"C  c #4B344A",
"Z  c #463C49",
"A  c #4A3C4A",
"S  c #53344F",
"D  c #513E4D",
"F  c #533D51",
"G  c #593A55",
"H  c #464043",
"J  c #4C4443",
"K  c #4E4843",
"L  c #474149",
"P  c #4C434B",
"I  c #4E494C",
"U  c #514745",
"Y  c #524B46",
"T  c #53444C",
"R  c #544C4A",
"E  c #584E4E",
"W  c #57514B",
"Q  c #5B544E",
"!  c #5E584F",
"~  c #4E4552",
"^  c #4D4851",
"/  c #524453",
"(  c #5D4556",
")  c #534A53",
"_  c #5A4E55",
"`  c #554658",
"'  c #554C59",
"]  c #5C4D5B",
"[  c #575057",
"{  c #5C5454",
"}  c #5F5951",
"|  c #5C525C",
" . c #624F55",
".. c #624A5B",
"X. c #615554",
"o. c #635C54",
"O. c #63565A",
"+. c #645B5C",
"@. c #695B5C",
"#. c #676157",
"$. c #676158",
"%. c #6C635B",
"&. c #6F695E",
"*. c #71665E",
"=. c #71685E",
"-. c #5E4D61",
";. c #5E5060",
":. c #624D61",
">. c #625562",
",. c #665B63",
"<. c #6C5E63",
"1. c #705F65",
"2. c #6C6263",
"3. c #6E6865",
"4. c #696068",
"5. c #736662",
"6. c #756C63",
"7. c #796E66",
"8. c #736569",
"9. c #756D6D",
"0. c #7B6E6A",
"q. c #777065",
"w. c #797166",
"e. c #7C736A",
"r. c #7F796C",
"t. c #736470",
"y. c #746873",
"u. c #7A6D74",
"i. c #7C7274",
"p. c #7D727D",
"a. c #806F6B",
"s. c #81756E",
"d. c #827A6E",
"f. c #827770",
"g. c #887673",
"h. c #847B72",
"j. c #8A7D75",
"k. c #827678",
"l. c #84787D",
"z. c #8B7E7A",
"x. c #88806F",
"c. c #8B8275",
"v. c #8D8379",
"b. c #8F887B",
"n. c #92847C",
"m. c #958A7C",
"M. c #998C7F",
"N. c #9A927E",
"B. c #8A7981",
"V. c #8B7E8A",
"C. c #998E81",
"Z. c #9C9284",
"A. c #9F9883",
"S. c #9F9788",
"D. c #A19486",
"F. c #A49B87",
"G. c #A3968A",
"H. c #A9938E",
"J. c #A69C8A",
"K. c #A89D8C",
"L. c #A99F91",
"P. c #ACA28D",
"I. c #AFA390",
"U. c #B2A693",
"Y. c #B5AB94",
"T. c #BAAF97",
"R. c #B4A598",
"E. c #BCAD9F",
"W. c #BDB39B",
"Q. c #C2B69E",
"!. c #C2B89F",
"~. c #C5BAA2",
"^. c #C8BDA5",
/* pixels */
"M.+ , N r 7 g N w s I.r.> f 8 - , , < X U W.W > f 6 6 3 a 6 r Z.A.3 r i w e w r 0 g U.7., -.i Z F r f > E ~.J X w - , , 6 , = c.",
"R $.= c 8 , p 7 B 7.r O.! > w - , w * T %.t Z.Y 5 a 7 r 6 7 w.I I 6.r p p i i w N w.h i.+.w r c p g 6 Y 5.G H.l - t < w - - 6.I ",
", A =.O < e ; g 6.7 3 > @.o.O w g q T 5.0 = f Z.Y q f 6 r 3.v 7 q [ w.- u M u M 6.> 0 c l.! O r q r } 2., V A H.U : t , - 6.) i ",
"m 6 P =.- # k 6.q > 3 3 3 @.X., x { 5.0 q > = f Z.W > 8 e.v 7 q q 6 ) 6., 2 B w.w y p r q u.o.O $ E %.1 u ` g ] R.z # 6 w.[ c B ",
"k c % ^ w.J *.8 7 6 3 6 q > O.6.R %.i c f q q q i m.o.%.L 3 r f q r 0 R w.E 5.j c A A c v a 2.%.{ @.> g r g N h p C.@.%.>.) ~ w ",
"f N v ~ | ~.s * r q r 6 q q 5 k.Y.$ c i 0 f q a r q W.2.= N g a f f f r P Q.l e c r 0 q f g 5 e.W.% u g r h g a r A E.7.y ' V A ",
"Z ' A ^ m F s.6 r r w w q r v 6 2.%.> g g q q q f r i m.I % r 7 q i r 8 * M e.4 r r q c a q a 0 2.$.% N r p p u r g , j.o.c Z ) ",
":.| ~ P e 0 ] 7.= , 6 r a r g N v | } q L g a q f i a c C.K % f r i w < e q <.s.o q q a q q f g f 2.o.% p g N g u p 0 y C.T , ] ",
"` A f e 8 w > I 7.9 a 6 w w f N N w O.o.3 m q q q f p w u S.z 6 g i p i N v v p.i.o 5 q f r v v h w | } : d m g m r f 6 p Z.R y ",
"m A 7 8 6 , 7 > P 6.a r 8 9 p m t p * { o.3 g a f c p p q i C.K 1 f r r g P ~ v C.B.% q r q r f c a 5 2.X.= u u g N m i w r b.} ",
"l y n e - w w 6 o L 7.= r r , 3 6 8 , X O.X.7 g f f g r r r f Z.Y 0 g r q c v v N t.3.+ 7 q v g h f q % @.} : k g Z p w p 0 r C.",
"Z.J   6 : 8 7 3 7 % I &.= w 7 > 7 8 8 8 X  .o.3 g f i w p h 6 p C.} 5 a g ;.Z c c r I &.= i N i f r 5 q % @.o.7 A c i 6 0 i i 1 ",
", M.U & 6 6 r r 6 6 > I 7.= = 9 6 6 8 - , &  .o.6 v r r r r w w 0 Z.Y > f I A N n P x ) e.q p g c r q 0 6 O X.X.q N p 6 6 e r , ",
"w u D.U : g r r r 6 r 0 [ =.= 8 , 6 , , < < : ,.} 3 i v p 8 , , , u D.R r Z m u Z L ' -.u.6.r Z 6 w r w w 6 $ O.X.= 8 6 0 6 6 r ",
"M w r G.Y , 8 , 6 p r f i ,.7.+ 8 , , w - - - * 1.o.0 p w 8 : , 6 w m C.{ i c i Z ' ;.) A ' 6.7 x w r 0 q , , &  .X.O 6 w g p w ",
"p r 6 g c.s q g 7 6 r w h c +.d.= , r t t 8 8 w : @.%.# 8 , w r w u m V v.l g g v ^ ` ;.c $ ,.h.> , , , - , 6 < @ 8.#.X p p p r ",
"6 q r o f.U.7 f N 9 w 9 m g w U.j.= r a r p w g r N W.o.X i r 6 e u g 0 v.P.g i M C ..:.c u q U.d.o : , = < w w < M ~.$., p w f ",
"u p % 7.f.P d.a r r w r , 6 6.9 B =.+ r a k k w P e.q X.o.= 8 , e c p e.w.N e.g n m C V r w 5.d { w.@ - - , t , l 7.f 2.W - p p ",
"f : w.e.$ 6 L h.4 - p 6 6 &.s ; - M *.3 m P i l 6.m p = O.! $ r w > d.q.> i v 9.N V S u A 6.s 8 p { =.@ , w w P 0.7 f > O.o.@ 6 ",
"1 d.7.> , r 7 c s.a > 6 &.N e 7 w - D w.3 > h 7.c c c i 6 { X.* $ w.i.% q r 5 Z d./ C e 7.d O g m m | =.* X m 7.6 , r h i @.o.@ ",
"q.6.> r 7 w p w Z q.R w.d 6 m 7 r y ; / 5.R e.a 0 q 0 i i 0 +.o.6.q.5 r i c a f m 7.X.s.t 6 6 6 c N r [ 6.J 7.i w w 6 g h 5 9.$.",
"$.% p q 6 6 r a r | ^.I 5 w r p q w c % z.P.6 m r y 6 q r c = K.7.; i i f c f f = _ W.r - 8 8 e p 3 c > c.P.q Z r = > r f r > K.",
"0 r a r > 6 r q r q.[ ^ c f f f i m 6 I w.g w r c 0 q 6 r > 7.%.> u i w r v a 7 7 w.g ; 8 8 - = y i 1 l 7.q g r 6 , > q q % e.&.",
"f g r q 0 a 6 r e.P v ;.v c v g h v l 7.g r w p L i i r 0 r.e.w n p p g r g q 6 7.B 6 8 - - 6 - r 0 f 7.6 r q q e = 5 q 5 e.q.6 ",
"q q a q f h r q.H a ) ^ P f c f i N 6.g i f e e r r i 5 e.0.: n j V m r f r f 7.B 6 , , , - - - > l q.r 6 v a v r 4 q ; 7.i.q i ",
"q q q a q g q.L f N g g Z i v 0 l 6.q q Z g i r e y , 7.f., 2 e j m u r r t s._ w r , , < - - * g q.q - 7 g g f r r $ 6.e.% i r ",
"i p q 6 q r.I f f r 5 a f f q l 3.0 q f k u u p n 2 7.z.p m Z N O.>.g g k q.l i r w - , 8 8 : t 7.r = 7 6 f f 7 6 % 7.e.= r q e ",
"w i g f 7.l 6 r 6 q a a v 6 L e.7 r v c m e e n 2 f.h.i Z N m m ' ] r B d.N i f h e , u k 0 k 7.i 6 > w 6 6 7 , % 7.q.0 0 w 8 r ",
"i w r w.d 0 p e r q i f g h e.D r h h m g e 2 , s.d.r c N c p V C m q 6.N r f f m 6 u N x d 7.g 6 , , , 0 6 6 . 7.r.> N r m < w ",
"p u q.h > , 8 w Z N h 6 N q.V :.p p m Z Z N c h.n.x g N N i c P m ~ 0.h 3 g r c g w r - m 7.h r q : , 7 w 0 X 6.q.> q v q Z e p ",
"P w.N 0 f r , , w e p l w.c m D f p N m M p s.j.V u r c N f v c g k.P 6 a N g g h w * N e.g i r 6 6 6 7 q $ 7.e.$ r i m < m M Z ",
"j.R 0 q g h p r , : k h.P Z A ] / k m h i +.5.b F p w 6 p c i i h.J r q q c p r a : k c.I q 7 c 7 7 r r q o.%.> f 6 k M e Z / Z ",
"N.8 8 8 u r r h - t U.r.5 B m >.] m g c } Q.B b V w w 0 p r i Z.F., r g r g B f w c Y.h.= Z V c r c r 5 { ~.l @ t = w r w p k c.",
"[ *.@ 8 6 w , , h q.a | +.r M S Z u > { 5.f G.R = F w : w w %.l B =.6 f f c L 6 v c.N <.X.r ~ v ~ Z 0 I 2.p m.U ; w 8 t u f 6.J ",
"6 M *.* w u > t q.r 0 > +.} : S F w E o.> , p C.Y y t , w 6.d , 6 N 6.O u m w f 9.v r 5 O.#.r L c q } 2.p q i C.z * m < 8 w.k > ",
"< X B &.* $ k 7.p 6 q q % $.o.u 1 E @.* 2 w w N P.z * w 5.t $ 6 q 6 _ 6.= , k 7.5 q v a 5 @.$.0 % I 5.r N Z r p Z.U X 2 7.H , : ",
"e u - _ s.U 7.e r r r w e 6 @.%.R @.* 8 r w r f Z S.{ 3.d * 6 r v N 6 N e.U %.6 r r r f a 5 2.7.Y @.w g m p r 6 g v.o.*.l > : w ",
"w u w r ) !.s w r j k r w , , 8.Y.X : 6 5 0 i g r q U.&.. r , q ^ I g = L !.s 6 c r c c c c 5 0.T.; c B A p w 6 w w R.&.  7 : , ",
"w , r 6 = N 6.= w p , e r w f * E @.* w c i i f Z f a b.J * r 7 N h 6 7 > I w.6 r q r c i q g > 2.$.= p c x q , w r , h.K $ 6 e ",
"y 0 w q a r y.h.* M f q r h 7 w , +.X.O N r q g v r a c Z.J $ r q q > 6 r r I =.> 0 q r w g r e i i.! O r 0 , q w 6 6 x G.K o r ",
"w p r w m ^ ^ y.q.5 f 7 a h w w t - X.o.O r 6 g g Z c q v S.z = a r a L c 5 5 P &.3 i r t t m t p w @.o.> r : 6 r m r e m m.K $ ",
"y i , 7 w r c i | e.4 r v q 0 0 r 9 ; +.} > N ) ' ^ v a r c C.J 3 N v g q 6 6 % H =.5 r t u M n >.] x B.o.= r t p r t g w r m.} ",
"l w M C Z c c v q +.6.r v r 6 6 g g g , O.$.v ' P ~ q 7 a q c G.H 0 ` q 5 5 q q 6 ) e.6 w j j j ] | Z x e.} > u t r u p q q q C.",
"D.E 0 p r r v a a 7 | s.q r r q p N f q * 4.} q v N g q r f c y C.R c Z L N h a g q R &.4 j j 8 m N V ~ r 2.o.* 6 p w g w r > r ",
"i C.Y = f f f r g h r ) w.6 6 f g h g 6 6 w 1.$.5 l h r , p Z : , m.{ x P [ L q v a % ) 6.6 e < N N j c v r 8.} * t - e e r w , ",
"q c Z.K 5 f q q r a v 0 _ %.3 f r g a = 6 w p +.} 3 h g 6 g t w 6 c m.2.c ) L a a a q g | &.< e m N m i g m 0 +.o.o e r p i 6 6 ",
"g r r C.K 5 f a N m m r = B 6.% u 7 w * , w e , X.+.6 h r r , , c 6 , M.2.L h f g q f g 7 / 0.6 M m m N N p p , <.! o 6 7 7 w r ",
"q 6 0 r v.d 0 r f f h r r 3 { w.- r g r = , , n : 9.%., g w 6 q c r 0 y h.h c v a f q 7 g r ..s.i Z g N N , w - ; 1.#.O 9 r 7 f ",
"5 6 r o f.P.4 r g v c r 7 q 0 I.j.+ 6 9 4 = 7 N w a Q.@.% 7 7 g g w w & e.P.7 q 0 , : M r w = P.b.r N f r w 6 y , M ~.#.% q r a ",
"q p ; w.5.C g.s c f f q 3 5 6.p ..7.+ + 7 6 5 q B %., @.Q % r r w w & 7.w.C h.d y p N p 0 3 7.s [ =.8 Z p u t m T 7.r <.! - N h ",
"f , e.6.> e C g.a q v q 6 7.g , 2 M *.= = 3 % s 7.8 , * O.o.% g r X 7.0., i V f.t r g 0 q 5.g - 0 T 6.Z F F p h e.v q * +.o.r ~ ",
"% 7.w.$ r p i V w.d % i 6.k 0 e 6 $ D 6.3 % h 7.7 6 r w > 8.} $ i e.f., k Z r Z s.9 = a 6.N 6 p u w J e.p x G 0.e > r t , O.} O ",
"e.6.o q r a m p u 7.J 7.g , q r p 7 - F 5.W 7.r q 6 3 q 6 0 <.o.7.i.q g u k p 0 Z h.E e.B 7 a p w r = T 3.Q w.6 w 9 8 6 e 6 +.$.",
"{ % 3 6 r q c A $ ) ~.h w g 6 r c 6 r * 0.J.- w 7 6 3 4 q r > R.7.p M m g m r g - O.~.a i f 7 3 t j r O d.K.r r r e 6 6 u f $ D.",
"3 7 7 q f r c c 7 e.N 6 Z N 6 7 r p 3 k e.= r r 6 6 5 6 r > w.$., M i Z g r r V I h.g = u r 6 i c p > N d.g c w w 8 8 8 0 , e.%.",
"q q r a r r a f 7.I c g ^ ' f g g r N 7.w w a q 7 7 r a 5 r.7.$ r p r c g r , 0 e.B - t w w i 7 e r h 7.f a c q 6 - , u * 7.w.> ",
"5 7 r r r f h 7.h q v v L ;.v v r L 7.9 7 r a q q 6 r 5 q.7.X 0 5 6 6 r r , 0 %.N O m p q , w r - I &.= 3 6 w 6 8 8 - - s.e.q r ",
"N a r f q 7 e.N q a a g ~ ~ L q I 7.6 = p h g c f i = w.w.w u r , 0 r f e g q.R = 3 p f x p r q s =.- > 6 6 6 6 9 6 ; =.d.r N p ",
"v a v c r q.I r g f v v v v v N 7.7 = 6 x m B r L 0 w.e., i x q q i i 6 q r.B c g 6 6 q e m m h 6.- 6 u e t w r 7 o 7.s.0 P c r ",
"f N a h w.H i N h h a a 6 q L 5., : 9 6 t N v c 5 r.7.* t r m 6 q u w 6 6.B x c i w r 5 6 0 P 6.7 : e k p 7 6 r % q.w.O m f c f ",
"g g f w.l 6 f p r r 6 r q h 6.6 4 8 8 8 p w q 0 w.e.; i x p q w w - 2 6.B 0 q q w r i i > d *.r g M e q i r g % w.7.* w i , r c ",
"q q q.h > a 6 r r r r , N q.w 6 , 8 , - , i > e.6.> j e w q M m , , 7.B 0 c q r 6 r i i l w.c p r e , m r P i w.7.* , @ 0 p i 5 ",
"3 =.N > 7 q 6 , 8 r N J 7.r r w , - 6 - , 0 w.w.> t p r e q q w w 6.B f r i c 0 q 0 0 h w.w A F w 8 p r 9 r s.7.X - , , 0 r , r ",
"d.N O 5 r r a 8 < , a b.e r r - < , * - ; [ w.= q w r 6 q 7 q r f.R r r 0 V N i r q N h.p 6 A ` A = w r 6 X.=.X , - * - 1 i q 0 "
};
