/* XPM */
static char *result[] = {
/* columns rows colors chars-per-pixel */
"64 64 235 2 ",
"   c #656D3A",
".  c #6C753C",
"X  c #757D37",
"o  c #6D742C",
"O  c #656D49",
"+  c #6C7447",
"@  c #737C4C",
"#  c #737C43",
"$  c #646D56",
"%  c #6C7555",
"&  c #6A745B",
"*  c #747D54",
"=  c #737C5A",
"-  c #6A7466",
";  c #737C67",
":  c #737D78",
">  c #6D7A78",
",  c #5F6849",
"<  c #7B843C",
"1  c #7D8537",
"2  c #7E862D",
"3  c #7B8444",
"4  c #7B844C",
"5  c #7C8547",
"6  c #7B8554",
"7  c #7E8853",
"8  c #7B855C",
"9  c #798357",
"0  c #7A8464",
"q  c #7B846C",
"w  c #7E896D",
"e  c #788367",
"r  c #7A8575",
"t  c #848D3C",
"y  c #838C34",
"u  c #8B943C",
"i  c #8A9436",
"p  c #939D39",
"a  c #838C2F",
"s  c #96A13C",
"d  c #838C44",
"f  c #838C4C",
"g  c #8A9444",
"h  c #8F9944",
"j  c #86904B",
"k  c #8B944B",
"l  c #8F994B",
"z  c #879145",
"x  c #929C45",
"c  c #929D4B",
"v  c #838D53",
"b  c #828C5C",
"n  c #869053",
"m  c #8A9553",
"M  c #8E9953",
"N  c #86915C",
"B  c #8B955B",
"V  c #8E995C",
"C  c #929D53",
"Z  c #929C5B",
"A  c #96A04C",
"S  c #99A44C",
"D  c #9AA547",
"F  c #96A154",
"G  c #9AA554",
"H  c #9EA955",
"J  c #96A15C",
"K  c #9BA55B",
"L  c #9DA95B",
"P  c #A1AD5D",
"I  c #A2AE54",
"U  c #A7B359",
"Y  c #838D64",
"T  c #828D6C",
"R  c #80876C",
"E  c #8A9463",
"W  c #8E9962",
"Q  c #86916B",
"!  c #8A9569",
"~  c #939E64",
"^  c #929D6C",
"/  c #828D74",
"(  c #828E7A",
")  c #86917C",
"_  c #8A9577",
"`  c #929D73",
"'  c #939D7C",
"]  c #96A164",
"[  c #99A463",
"{  c #9DA963",
"}  c #96A26A",
"|  c #9AA66B",
" . c #9DA96B",
".. c #9AA67B",
"X. c #9DAA7B",
"o. c #98A576",
"O. c #A2AD64",
"+. c #A1AE6C",
"@. c #A8B469",
"#. c #A2AD79",
"$. c #A4B274",
"%. c #A6B37C",
"&. c #A9B67C",
"*. c #ABBA7B",
"=. c #AAB773",
"-. c #B1BF77",
";. c #B1BF6C",
":. c #B4C273",
">. c #707B82",
",. c #7A8687",
"<. c #7C8B92",
"1. c #838D8A",
"2. c #838C87",
"3. c #8A958C",
"4. c #889589",
"5. c #929C87",
"6. c #828E91",
"7. c #818F99",
"8. c #849393",
"9. c #8A9593",
"0. c #8C9A94",
"q. c #8B969B",
"w. c #8D9B9B",
"e. c #86949A",
"r. c #929C94",
"t. c #929D9B",
"y. c #99A484",
"u. c #9CAB8C",
"i. c #99A586",
"p. c #9AA594",
"a. c #94A29C",
"s. c #9AA49D",
"d. c #99A797",
"f. c #9FB099",
"g. c #A1AD87",
"h. c #ACBA83",
"j. c #A4B28A",
"k. c #A9B787",
"l. c #B0BD88",
"z. c #A1AD98",
"x. c #ADBC93",
"c. c #A5B49B",
"v. c #A9B798",
"b. c #B2BE9A",
"n. c #8E9BA4",
"m. c #8C98A6",
"M. c #929EA3",
"N. c #949EAA",
"B. c #909EB1",
"V. c #94A3A4",
"C. c #9AA5A3",
"Z. c #9CAAA4",
"A. c #94A3AB",
"S. c #99A5AB",
"D. c #9DABAB",
"F. c #96A8A7",
"G. c #99A7B3",
"H. c #9CABB3",
"J. c #9DACBB",
"K. c #95A7B5",
"L. c #9EB1B9",
"P. c #94A6AC",
"I. c #A2ADAC",
"U. c #A1ACA3",
"Y. c #AABBA4",
"T. c #A3B2AC",
"R. c #A8B7A7",
"E. c #A3AEB4",
"W. c #A1AEBB",
"Q. c #A0A5B1",
"!. c #A4B2B4",
"~. c #ACBBB3",
"^. c #A4B3BD",
"/. c #AAB5BE",
"(. c #ADBBBC",
"). c #AAB7B6",
"_. c #B2BEBC",
"`. c #B2BDAA",
"'. c #B6C588",
"]. c #AFC095",
"[. c #B7C799",
"{. c #B7C993",
"}. c #B3C4AB",
"|. c #B8C7A9",
" X c #AEC1B9",
".X c #BCCDB3",
"XX c #B4C3BB",
"oX c #B7C7B8",
"OX c #BED1B6",
"+X c #BFD3AF",
"@X c #C5D598",
"#X c #C5D6A7",
"$X c #C6D5BA",
"%X c #C0CCB6",
"&X c #D1E3B3",
"*X c #9DAEC2",
"=X c #9EB2C5",
"-X c #A5B5C2",
";X c #AAB6C2",
":X c #A6B9C4",
">X c #ABBAC5",
",X c #A3B5CA",
"<X c #A6BACB",
"1X c #ACBDCA",
"2X c #AAB6C9",
"3X c #B1BCC5",
"4X c #B1BECB",
"5X c #B8BFC8",
"6X c #ABBED2",
"7X c #A5B9D1",
"8X c #B1BED1",
"9X c #A1AEC2",
"0X c #ADC1CD",
"qX c #B3C4C4",
"wX c #B2C2CD",
"eX c #B9C9C9",
"rX c #AEC2D3",
"tX c #AEC4DA",
"yX c #B3C4D3",
"uX c #B9C4D3",
"iX c #B5C9D5",
"pX c #BACBD4",
"aX c #B2C6DA",
"sX c #B5C9DC",
"dX c #BBCCDC",
"fX c #B8C7DC",
"gX c #BDD1CE",
"hX c #B5CAE1",
"jX c #BBD1E3",
"kX c #C1CECA",
"lX c #C6D6C8",
"zX c #C4D7D7",
"xX c #C0CCD7",
"cX c #C7DBE3",
"vX c #CEE0C2",
/* pixels */
"wX>X;X^.2X1XW.*Xi.e G.r ; r r e Z V f ,.H.xXkXf e.N.M.N.t.0.t.w.0.q.V.n.M.C.M.s.7 S.yX*XZ.S c @ 6 9 * 0 - (.} q.4X^.;XiXwXwX0X0X",
">X1X>X-X2X3X^.t.6 K.Q o.i.X...X.K C Z N 8 q.z.H v N V B ~ ] J K J N N n n B d m v 2.t.! { F c n s. XR.b.o.- .XY >X;X:XrXrX0X0X0X",
"1X0X1X>X;X;X4Xb 8.i._ 6X1X>X*X5.z k ; 4Xj.t f @.Z [ O.O.{ O.O.@.@.O.L P H S O.H M z 1 0 eXl.z z ,.yX1X6XxXB 1.h.2.1X2X0X0X>X0X:X",
":X1X0X1X/.8Xz.8 a.N <X;X;X2X5.z C v W.-XN C f [ O.b &.*.&.#.x.].l.k.g.*.g.z.P +.O.A k $ B.lX@.c # M.1X^.1XlX* ~.E A.iX0X>X:X:X:X",
";X>X<X1X>X!.@ N.E a.yX>X4XE.M C n r.4X` l m S & lXl 9.jXwX1X0XyXiX1X0XiXyXi.v H.} A M j - 6X+XU x * 3X^.2XiXx.- +X0 ,X0X>X1X>X1X",
":X:XyX1X2Xb 3.5.T 1X1X1X1X^ c k / 4Xt.l S b c.X <.#X# ,XdXyX,XrXsXsXtXtXZ.t w.u.m R.F V 4 <.sX+XI y 2.4X1X2XpXW 8.l.r sX0X0XwX1X",
"t.8.) _ E _ U.6 H.-X2XyXU.c G * 2X^.Z K d w.2X$.  A.;.9 5.` / ) ( _ ) ' j w D.g w.hXk.l J + B.cX-.x @ N.3X:XrXoX@ !.[ 1.C.M.D.M.",
"X...u.c.c.;XE t.1XH.-X5XZ c n 0.6X..C H _ >X^._.=.& eX'.$.X.h.&.=.&.=.&.u.1X+._ 0X1XXX{ V B $ rX$XI u ; 2X>X0X0Xx.e eX#.g...#.#.",
"( q q Y ; _.} M.uXE.J.u.c l / uXr.M O.m E.>X!.2X..6 m./ e = q r r r r r - =X{.% 0XwX:X|.F L 4 <.jX'.H < <.0X1X8Xi.) t.0 R R ) 2.",
"g.i.p._.l.& %X= -X4X!.C P 7 /.3XV Z C ) 4X^.2Xp.d w.b ~ g.i...| ] [ [ ~ F , lXH <.dX0XsX].C J + J.lX:.h # J.dXU.b V.b I.U.c.g.j.",
"8X2X9XW.xX! 1.[.r 6X^ F k 3.fXy.C m b ;X3X;XC.d 3.` E 7XrX6XaXjX0XrX1X<X Xk r &X4 K.=XL.:X+.c f - 7XOXS t e *XY C.! U.2XJ.,X8XaX",
"iXuX;X^.2XkX6 t.V * M c Y 2XI.Z J M V.uX4XE.m / p.5 -X(.;X:X0X0X1X1X1X>X*Xc.o H.:.- 0X(.*XXXC C 4 > sX'.x j d = ' ' xX2X2X4X-X-X",
"V.r.3.9.q.9X%.. C p z v L.2X^ P l 4.wX3X2X^ b A.k I.4X1X^.>X0X:X;X0X0X>X>X1X$.$ lXg 8.4X^.tX|.g J + m.cX=.h g m d R r.r.r.2.9.t.",
"z l z l g @ j c m c i & G.u.C C E 2X4X2Xp.d M.~ _ yX(.wX>X1XqX0X;X;X^.;X>X<XeXg ,.@X+ m.A.M.E.[ J J & B.' x l c d k l M C C C C ",
"{ @.@.+.@.U S c d r.`.#.v C C C 6 Y Y b g ) f.f -X5X/.>X1X1X0X1X>X/.;X;X-X:X6X|.o D.=.3 V B M j m Z B 7 _ t.R.l M O.O.@.O.O.O.O.",
").1XuX5X3X5XkX%Xg t.8XxX%XO.K W b.l.k.k.z.3Xc w.fX5X3X4X1XrXqXwX3X(.;X>X-X:X1XyX$.& lXv.Y.`.`.b.| ] ~ L.5XW.U.d 3XkX_.kX_.~.).XX",
"M.,.3.t.,.1.q.5.d S.xX;XQ.Z Z * ) q ( / : N.-.0 uX;X;XwX4X1X0X1X/.3X/.>X1X>X5X2X` * N.w ; 0 ; / } } 7 n.W.fXU.< n.N.N.E.Q.N.N.m.",
"y y y y a 2 1 d g R 9.Q ^ P Z M V $.K Z [ $ ).G C.uX3XwX>X:XwX1X;X;X>X-X<X-X8Xz.d S.E { &.#.+.Z Z ~ W ! R 9.` t X y X d d X f X ",
"] %.y.g.v.g.J c I x X - xX@Xc K 6 ;X5X3X#XZ > @X9 yX>XrX1X-X0X3X3X(.>X;X1XwX).X 9.y.d G.uXwXz.B J J w dXg.y h c d [ =.P P C P O.",
"-X2X-XJ.2X6XY.c c x D # m.xX-.C C R uX3X3Xb.@ Q.H <.0X>X1X0X1X/./.;X;X>X1XrXW Y C.k 0.iX3XE.V J [ 8 ^.qXf t i x N -XuXwX3X(.5X;X",
"/.;XqX;X^.1Xn.r.y.&.c x & 2X.XP K z q.wX;X_.[ > +X. K.rXJ.1XwX3X3X3X;X3XrXz.3 N.~ Y 1XyX:X^ J ] m 0.yX} i 5 z._ w.H.yX0X4X;X;X3X",
"-X-X^.:XwXV.0.9.J.1X[ c < : yX{.F G * J.2X6X[.f <.'.& tX<X,X1X2X9XW.J.,XL.t 3.j.m G.rX4Xd.F [ V w sXd.p i a.fX^.,.0.0XrX4X4X;X;X",
"0X4X^.^.E.q.C.I.3XQ.R.c c   B.eX;.F k r 6X<XqX*.* D.G ; Q V B V M B B E z w I.J ) ,X1X!.B [ [ 7 *X0XM i _ yXE.>XF.3.D.<X2X1XyXuX",
").T.s.a.9.G.C.uX3X;XW.j.x h & 7X.XL F z ,.rX1X~.$.r OX%.y.j.c.v.c.c.v.z.f.>XX.! H.>X4Xy.Z [ n e.sX! i j E.yX;X/.(.<.Z.Z.D.0.0.F.",
"3.1.0.a.w.a.C.wX;XqXW.H.[ x X ,.jX[.G L d m.iXD.} q K._ b + + + @ @ @ @ % H.h.* L.1X^.V Z M e tXp.p u t.2X;X5X2X0X,.G.r.a.w.4.3.",
"(.L.:X0XqXw.Z.G.yXwX3XW.T.S x   B.zX'.J K = N.^ ~ M.E Z x.v.v.z.Y.|.x.`.O.$ lXF r rX^ J K 4 L.0Xg p _ 4X3X^.>X2Xw.a.,.S.!.(.qX:X",
"1X:X=X0X;XH.V.a.2XyX>XwX^.v.x g $ 7XlX@.C M * W t.f.j ^.8X4X4XW.,XaX4X6XqXt ,.&X7 0 F { M 1.tX` p f ^.1X4X^.;Xt.8.0.^.;X0X>X^.:X",
";X^.(.:X-X0Xa.C.F.yX>X4X:X<Xk.D 1 r dX[.C B C & w.k Z.fX4X4XxX5X:X0XrX;X6X|.. C.@.< ] H w rXZ.u t r.2X1XwX3X;X2.w.^.>X;X>XwX>X;X",
";X;X;X;X^.<X>X9.Z.A.0X-X:X<XwX@.u   n.zX$.j M Z k 7 2.4.4.4.3.2.) r _ Q / ` J @ J K f w <X,Xk p b 2X^.1X3X3Xq.q.V.yX/.>X:X1X1X;X",
"0X0X/.^.-X^.wXD.a.a.L.>X>X1X1X_.I u $ n.o.L m C F m c l c g g g k k k V C G m M N { M & K.} s z I.1X<XwXkXN.9.q.^.wX3X>X/.0XwX;X",
"0X>X>X/./.;X1XiXV.U.t.^.:X(.^.D.M F 5 Y 5.!.}.C M K L H P P P G L { O.O.O.O.{ K N Z. Xj.~ l S w <X:X0XyX/.3.3.E.>X;XqX1X1X0X0X:X",
"1XqX3X;X/.;X^.:X>Xa.(.w.a.a.s.c.L A 5 F.xX4X).v T. XXXeXXXXXeX5XqXeXeX XgXgX0X$Xm G.iXhX}.h A 7 Z.F.F.C.t.S.C.yX1X;X>X;X>XrX0X:X",
"wX>X3X;X>X;X>X1X2Xn.F.2.8.r.t.p.C C c r W.>XXXf 6.M.M.N.n.S.q.6.8.e.<.w.<.w.<.0.v D.aXrXf.h A 9 0.a.a.0.2.!.t.1XwX5X3X>X4X0X0X>X",
"4X1X5X5X;X-X:X4X9.w.0.L.4X5X5X(.K j m ~ b ,.a.K 4 6 6 7 b N V v n m n 7 n m n k 6 q.V.` ;.F u / rX XqX/.).2.t.S.8X3X>X1XwXyXwX:X",
"wX1X;X;X>X^.>XS.<.w.;X>X1X>X4XI.l u w jXb.g 4 =.l B O.C Z [ [ J J J L L K J V M N b d q pX'.i 4 -XyX0XwXuX(.3.C.D.5X;X>X0XyXyX0X",
">XwX/.;X3X;XH.6.a.A.yX^.-XwX3XV u 4 -X/.Y O.c V -.3 } h.} }  .#...j.j.j.v.X.g ~ } k B % B.gXU a r sXwXwX3X1XD.t.t.;X4X>X0X<X:X0X",
"-X4X3X^.;X4X9.C.t.1X1X1X1XfXy.D g 1.6Xu.Z V @.* !.:.@ 2XuX1XyXdXrXtXtXtX,X[ j F.{ j ~ Z - =X+Xs < n.sXwX4X/.yXZ.a.V.1X-X:XiX0X0X",
"wXwX5X/.4XS.n.q.H.iX1X^.1XU.x u T 2Xa.{ +.~ X.O.; oXD 0 0.a.a.0.0.0.0.9.o.h 8.i.j o.}  .4 <.jX'.p 4 L.0X;X-XL.qXr.V.^.0X=X0X(.0X",
"/.W.;X3XE.9.M.t.,X1XwXE.E.V p v 9X!.^  .{ T pXh.n >.#XI A l H S S S F l S _ C.h ) gX$.~ } % *XeXH i e rX;X>X:XyXD.a.D.-X:X:X:X:X",
"0.r.p.r.3.V.w.0X:X>XwX4X' x d q.4X' Z +.Z 0.yXoX+.8 1XoXR.c.Y.R.}.Y.Y.R.f.:X .7 :XrXOX] | V - ,X[.A 1 4.iX0X:X0XwX8. X~.R.Z.3.a.",
"s.T.s.a.Z.r.t.;X0X0X0Xd.x x R 8Xs.Z [ ] 5.>X0XT.5 ) t.4 . # 9 9 = 9 9 9 * M.'.# K.<XyX].] $.6 ,.0X:.s 5 K.0X-X0X1X1.H.9.0.a.0.a.",
"1X1XwXwXuXt.C.Z.0XiX XM x 4 W.(.~ J ] _ >XwXrX] 7 L.5 J x.h.=.{ @.@.{ '.U O XXU & ,X:XgX .} +.% m.eXL i & rX:XrXM.A.0.:XwXeX0XyX",
">X>X0X0X(.;Xa.D.F.<X^ h 5 w.yX..J  .N D.yXrXi.t q.#.z =XrX,X0X0X:X0X=X=XoXy > &Xt <.tXrX}.n } N - tXoXu X n.sXL.w.A.L.0XiXpX0X0X",
"iXyX0XwX>X^.:Xr w 7 A h Q rXZ.[  .~ 4.2X0XI.c r s.i V.0X^.0X:X-X0XrX>XL.2X{.o S.@X+ K.0XdXj.f ] % ,.jX:.2 4 3.,.n.F.yX:X0XwXyXwX",
"L.0X0XtXrX<Xd.3 A c c 9 :X0Xo. .O.w =XrX<X~ 4 K.h _ rX>X:X:XL.:X<X=XyXqXL.yX@.  .XS $ J.tXpXX.B } O K.gXU u y g # P.sXrXrX0X0X*X",
"z 7 7 7 7 m l h 7 x 1 9 L.u.] +.B <.=XK.u.z <.o.5 <X0X0X0X0X^.:X=X:XrXqX^.>XqXu $ |.j = 0.0.i.V ^ 7 - K.#.s y l x 9 w w 4._ 7 7 ",
"U I I D D I @.I l i.}.%.7 W V 7 M 7 7 5 A _ Z.2 V.rX^.0X(.L.=X0X0X:X0X:X1X3X-X`.2 ,.[.K H H M n B B N N Q f.j.h x D p p i p D U ",
"wX0X0XgXiXiXdX$X5 P.tXrXeX:.@.{ k.{.'.].j.L.O.Q rX0X:X1X;X-X(.0X0XL.0X0XwXwX;X8X'.o J. Xf.~.}.].$. .W ).eX,XZ.5 u. X X XOX X XeX",
"4.,.,.9.0.w.8.5.j n.dX^.K.| } 8 ,.r e e ,.-XL - tX0XL.0X X0X0X=X1X1X:X<X:X>XeX^.B 6 M.T * % ; / ^ | Y n.;XdX`.X q.W.e.m.J.G.n.w.",
"u 1 y 1 t i d z 5 r V._ ^ |  .V V [ [ | n - +Xi <.iX(.wX0X:X0X0X-X:X:XwX:X>X<X^ u m.` Z h.h.| Z ] | | } Q q.z.C @ v # 3 4 v f t ",
"#.&.*.X.%.$.C c l l 1 ; yX[.J ] 9 H.>XqX[.5 <.{.X e.:X0X0X0X0X0X^.=X<X0X0XyXu.1 9.f.l 0.1XfXr.Z  .B r iXx.i f J M M P P H I P  .",
"2X:X0XrX6X4Xo.M { G G + m.gX=.J V ; 4X;XwX*.O (.:.. n.0X:X:X0X0X0X:X:X1XwX1XM 0 A.F ( yX3X/.~ [ | Y J.H.7 C l K c E E.XX~.~.!.3X",
">X(.^.0X0X0XY s. .F J j & 7XOX{ [ v 2.wX,XXX~ $ eXI 9 =XrXrXrXiXwX1X:X:XtX' 1 a.| E =X0XyXz.[ } b t.yX! g d S * ].Y 7X1X<X8X4X>X",
"wX>X0X<XsXf.q z.Q }.c M . ,.jX+XJ O.% N.2X6X@X# >.&X1 e K.K.F.L.L.H.*X,XZ.y ,.u.j P.yX0XI.^  .Z ) fXp.A x Y _.b <.k.8.hXwX1X4XwX",
"E.G.H.G.a.9 t.N P.sXh.k F O B.gX:.Z B $ -X>XqX$.% <.#XD g A u 5 g d 7 4 t 6 a.C 4.tXyX0X..O.~ b J.^.m x d H.dX.XO U.W M.S.I.H.D.",
"` o.X.o.o.!.^ 0.1X>XqX{ C k $ =XlXO.[ 5 ,.yX;XoX%.9 L..Xf.f.}.c.b.{.h.k...L.#.E L.0X0X' [ ~ m t.fX` h h 0.-XL.iXb.- $Xo.` g...` ",
"_ r w T e Z.h.r 6X>X<X}.l M 3 ,.dX#XK O.@ M.uXt.~ r F.w 9 @ @ = ; ; ; q - S.{.@ N.>XI.~ ~ Z / 8Xp.l x E iX;XE.9Xy.; A.0 q T q ( ",
"g.u.p.R.|.@ D.:.r 1X:XtXx.l K   N.zX'.[ O.* m.~ w P.V A +.%.$.L c C c F x O ~.O.; W.` [ O.Y 3XQ.f c d V.yXwXdXT.9 t.6 f.}.Y.c.u.",
"-X6X1X<XfX.XO eXW 7.-X1X0X .l c $ *XlX@.~ B b ~ F.o.u F.hXtXsXiX0XpXqXiX.Xh - $Xf 0 [ { B t.8X^ g t 4.2XJ.-X;X~ w.o.a.sXrXyX1X<X",
"^.-X-X:X>XjXj.- $X8 *XwX<X XK K 5 - sX$XC W V & d.x w P.a.a.a.a.F.F.V.A.D.-.5 3.=.f ~ [ / xXz.c x 8 -X/.^.-X` _ d.0 rX0X1X0X;XW.",
">X1X^.>XL.L.jX7 F.h.8.tX>X<X].K G . <.cX'.B m b M m !  .{ ] } [ { J ] W ] X.@.7  .{ v E 4X3XC S z E.4X3X2Xz.b M.9 V.:X0X0X0X0X;X",
";X>X>X>X0X0XrXoX$ .X0 =XiX0X1XX.J F $ m.g.L Z { M 7 V }  .+. .}  . . .} } | +.J W $.M - W.X.D g r.8X4X8X/.B M.' 5.yX1XqX1X;X1X(.",
";X^.-X-X-XrX0XiX! a.k.e w.0.3.N m Z v b _ _.XXC Z | +.k.%.%.k.*.:.k.:.k.#.$.%.O.7 !.eXj.^ C P M T Q / / } 5.Z.E yX4XiXyXwX1X>XwX",
"/.;X:X>X<X0X:XrXY.e lXh.#.%.#.h.[ Z v w.-XuX X7 ).eX XqXwXqXqX0XgXrXeXeXqXoXqX.Xv V.0XiXeXG C W |.`.}.[.v.;X! V.iX^.0XwXwX1X>XwX"
};
